<svg xmlns="http://www.w3.org/2000/svg" width="40" height="40" viewBox="0 0 30 30" preserveAspectRatio="xMidYMid meet">
    <path d="M9.4 1.9c-2.8 1.2-8.6 8-7.8 9.2.3.6 1.5-.3 2.5-2C7.8 3 16.1 1.2 22 5.2 26.1 8 26.9 10 24.1 10c-1.2 0-2.1.4-2.1 1 0 .5 1.6 1 3.5 1 3.5 0 3.5 0 3.4-4.3 0-3.5-.2-3.9-1.2-2.5-1.1 1.6-1.4 1.5-3.9-.9C20.9 1.5 13.3.2 9.4 1.9zM1.1 22.2c0 3.6.2 4 1.2 2.6 1.1-1.6 1.4-1.5 4 1 2.4 2.3 3.7 2.7 8.8 2.7 5.8 0 6.2-.2 10-4.3 2.2-2.3 3.7-4.7 3.3-5.3-.3-.6-1.4.2-2.5 2-3.7 6.1-12 7.9-17.9 3.8C3.9 22 3.1 20 5.9 20c1.2 0 2.1-.5 2.1-1 0-.6-1.6-1-3.5-1C1 18 1 18 1.1 22.2z"/>
</svg>
