<svg xmlns="http://www.w3.org/2000/svg" width="40" height="40" viewBox="0 0 30 30" preserveAspectRatio="xMidYMid meet">
    <path d="M15 1.7c-2.8 1.1-5 3.6-5 5.6 0 1.7 7.5 9.6 9.3 9.7.4 0 .7-.9.7-2 0-1.3.7-2 1.9-2 2.6 0 7.1-3.8 7.1-5.9 0-1-.9-2.6-2-3.6-2-1.8-9.3-2.9-12-1.8zM25.1 4c3.7 2 2.1 5.9-3.1 7.5-1.4.4-2.8 1.2-3.2 1.8-.7 1.1-6.3-2.9-7.3-5.2-.3-.8.2-2.2 1.1-3.2 1.9-2.1 9.2-2.6 12.5-.9zM1 16v8l6.3.1c3.4.1 5.4.3 4.5.6-3.4.9-1.7 2.3 2.7 2.3 5 0 5.7-.6 2.3-2-1.8-.7-.8-.9 4-.9L27 24v-4.5c0-2.5-.4-4.5-1-4.5-.5 0-1 1.6-1 3.5V22H14 3v-6c0-5.7.1-6 2.5-6C6.9 10 8 9.5 8 9c0-.6-1.6-1-3.5-1H1v8z"/>
</svg>
