<svg xmlns="http://www.w3.org/2000/svg" width="40" height="40" viewBox="0 0 30 30" preserveAspectRatio="xMidYMid meet">
    <path d="M6 2.3C.5 5.1-.6 12.6 3.9 17.1c3.1 3 8 3.9 11.1 1.9 1.1-.7 2.9.4 7.2 4.7 3.2 3.1 6.1 5.4 6.5 5s-1.9-3.3-5-6.5c-4.3-4.3-5.4-6.1-4.7-7.2 2-3.1 1.1-8-1.9-11.1C13.9.7 10.2.2 6 2.3zM16 5c2.7 2.7 2.7 8.3 0 11s-8.3 2.7-11 0-2.6-7.7.2-10.7c2.7-2.9 8-3.1 10.8-.3zm-6 2.9c0 1.2-.8 2.1-2.2 2.4l-2.3.4 2.3.8c1.2.4 2.2 1.4 2.2 2.1 0 .8.5 1.4 1 1.4.6 0 1-.7 1-1.5a1.54 1.54 0 0 1 1.5-1.5c.8 0 1.5-.5 1.5-1 0-.6-.7-1-1.5-1S12 9.4 12 8.6s-.4-1.8-1-2.1c-.5-.3-1 .3-1 1.4z"/>
</svg>
