<svg xmlns="http://www.w3.org/2000/svg" width="40" height="40" viewBox="0 0 30 30" preserveAspectRatio="xMidYMid meet">
    <path d="M1 3.5C1 5.5 1.5 6 3.5 6S6 5.5 6 3.5 5.5 1 3.5 1 1 1.5 1 3.5zm9 .5c0 .6 3.8 1 9.5 1S29 4.6 29 4s-3.8-1-9.5-1-9.5.4-9.5 1zm-9 6.5c0 2 .5 2.5 2.5 2.5S6 12.5 6 10.5 5.5 8 3.5 8 1 8.5 1 10.5zm9 .5c0 .6 3.1 1 7.4 1 4.1 0 7.8-.5 8.1-1 .4-.6-2.3-1-7.4-1-4.7 0-8.1.4-8.1 1zm-9 6.5c0 2 .5 2.5 2.5 2.5S6 19.5 6 17.5 5.5 15 3.5 15 1 15.5 1 17.5zm9 .5c0 .6 2.7 1 6 1s6-.4 6-1-2.7-1-6-1-6 .4-6 1zm-9 6.5c0 2 .5 2.5 2.5 2.5S6 26.5 6 24.5 5.5 22 3.5 22 1 22.5 1 24.5zm9 .5c0 1.3 14.7 1.3 15.5 0 .4-.6-2.3-1-7.4-1-4.7 0-8.1.4-8.1 1z"/>
</svg>
