<svg xmlns="http://www.w3.org/2000/svg" width="40" height="40" viewBox="0 0 30 30" preserveAspectRatio="xMidYMid meet">
    <path d="M1 6.5C1 8.5 1.5 9 3.5 9S6 8.5 6 6.5 5.5 4 3.5 4 1 4.5 1 6.5zm9-.5c0 .6 3.4 1 8.1 1 5.1 0 7.8-.4 7.4-1-.3-.6-4-1-8.1-1-4.3 0-7.4.4-7.4 1zm-9 9c0 2.5.4 3 2.5 3S6 17.5 6 15s-.4-3-2.5-3-2.5.5-2.5 3zm9 0c0 .5 2.4 1 5.4 1s5.8-.5 6.1-1c.4-.6-1.7-1-5.4-1-3.4 0-6.1.4-6.1 1zm12.2 1.3c-2.3 2.4-1.9 4.5.5 2.6 1-.9 1.3-.3 1.3 3 0 2.6.4 4 1 3.6.6-.3 1-2 1-3.6 0-1.7.4-2.8.9-2.4 2.1 1.2 1.9-1.4-.3-3.4L24.4 14l-2.2 2.3zM1 24c0 2.5.4 3 2.5 3S6 26.5 6 24s-.4-3-2.5-3-2.5.5-2.5 3zm9 0c0 .6 2.7 1 6 1s6-.4 6-1-2.7-1-6-1-6 .4-6 1z"/>
</svg>
