<svg xmlns="http://www.w3.org/2000/svg" width="40" height="40" viewBox="0 0 30 30" preserveAspectRatio="xMidYMid meet">
    <path d="M6.1 10.2c-2.2 6.6-2.8 11-.9 7 1.2-2.4 6.3-3.1 7.1-1 .4.9.6.8.6-.3C13 13.9 10 5.1 9 4.5c-.4-.3-1.8 2.3-2.9 5.7zm4.2.8c.4 1.5 0 2-1.5 2-1.4 0-1.8-.5-1.4-1.6.3-.9.6-2 .6-2.5 0-1.7 1.7-.1 2.3 2.1zm4 6.9c-3.7 7.6-3.8 8.1-1.8 8.1 1.6 0 2.1-.6 2-2.8 0-2.4.3-2.7 3.5-2.7s3.5.3 3.5 2.7c-.1 2.4.3 2.8 2.9 2.8 2.7 0 2.8-.1 1.3-1.8-.8-.9-2.5-4.2-3.7-7.2s-2.5-5.9-3-6.4c-.4-.4-2.6 2.8-4.7 7.3zM19 16c.9 1.7.8 2-.9 2-1.4 0-1.8-.5-1.4-2 .3-1.1.7-2 .9-2s.8.9 1.4 2z"/>
</svg>
