<svg xmlns="http://www.w3.org/2000/svg" width="37.333" height="37.333" viewBox="0 0 28 28" preserveAspectRatio="xMidYMid meet">
    <path d="M7.2 2c-9.4 5.7-9.4 18.3 0 24 6.4 3.9 14.6 1.6 18.8-5.2C33.1 9.1 18.9-5.1 7.2 2zm11 1.2c-1.5 1.5-6.9 1.5-8.4 0C8.9 2.3 9.9 2 14 2s5.1.3 4.2 1.2zM8.5 6.6c1.8 1.3 1.8 1.7.5 3.7-.8 1.2-2.4 4.2-3.6 6.5-1.6 3.4-2.3 4-2.8 2.7-1.1-3.1-.6-10 1-12.3 1.8-2.6 2.2-2.6 4.9-.6zm15.9.6c1.6 2.2 2.1 9.2 1 12.2-.4 1.1-1.2.4-2.8-2.7-1.2-2.3-2.8-5.2-3.6-6.4-1.3-2-1.3-2.4.5-3.7 2.7-2 3.1-2 4.9.6zm-6 8.8c5.9 6.5 4.2 10-4.6 10-4.7-.1-7.8-1.8-7.8-4.4C6 20 12.6 12 14 12c.4 0 2.4 1.8 4.4 4z"/>
</svg>
