<svg xmlns="http://www.w3.org/2000/svg" width="36" height="32" viewBox="0 0 27 24" preserveAspectRatio="xMidYMid meet">
    <path d="M10.2 3.3L0 6.3v8c0 7.1.2 7.8 1.8 7.2 4.7-1.8 7-1.7 7.4.2.3 1.9.5 1.9 8.6-.5l8.2-2.5v-5.8c0-5.8 0-5.8-2.4-4.9s-2.5.7-2.8-3.4L20.5.3l-10.3 3zm8.8 3c0 3.1-.3 3.4-5 4.6-4.5 1.1-5 1.6-5 4 0 2.3-.6 3-3.5 3.8L2 19.8v-6.2-6.3l7.3-2.1C19 2.5 19 2.5 19 6.3zm5 7.7c0 2.9-.4 4-1.5 4S21 16.9 21 14s.4-4 1.5-4 1.5 1.1 1.5 4zm-6.2 5.1c-1 .6-1.4-.1-1.6-2.8-.2-2.2.2-3.9 1-4.4 1-.6 1.4.1 1.6 2.8.2 2.2-.2 3.9-1 4.4zM14 17c0 2.9-.4 4-1.5 4S11 19.9 11 17s.4-4 1.5-4 1.5 1.1 1.5 4z"/>
</svg>
