<svg xmlns="http://www.w3.org/2000/svg" width="40" height="40" viewBox="0 0 30 30" preserveAspectRatio="xMidYMid meet">
    <path d="M5.3 2.6c.3.4 0 1.9-.8 3.5-.8 1.5-1.5 4.7-1.5 7 0 3.5.6 4.8 3.9 8C9 23.3 11.7 25 12.8 25c1.2 0 2.4.5 2.7 1 .3.6-.1 1-.9 1-.9 0-1.6.4-1.6 1 0 .5 1.6 1 3.5 1s3.5-.5 3.5-1a.94.94 0 0 0-1-1c-.5 0-1-.4-1-.8 0-1 6.1-3.5 8-3.2 1.2.2 1.1-.2-.4-1.9-1.6-1.7-1.7-2.5-.7-5.2C27.8 7.5 18.8-.2 11 4c-1.3.7-2.1.6-3-.5C7.3 2.7 6.3 2 5.7 2s-.8.3-.4.6zm1.6 6.7c-3 8.5 5.4 15.1 14.4 11.2 1-.4 1.7-.3 1.7.4 0 .5-1.8 1.5-4 2.1-4.7 1.3-9.8-.4-12.4-4.1-1.8-2.7-2.1-9.1-.5-12.1 1.6-3.1 2.2-1.4.8 2.5zm9.8-3.7c-.3.3-1.2.4-1.9.1-.8-.3-.5-.6.6-.6 1.1-.1 1.7.2 1.3.5zm5 1.9c.3.9.3 1.9-.1 2.2-.8.9-3.7-1.8-3-2.8.8-1.4 2.4-1.1 3.1.6zm-7.7.4c0 1.3-2.6 3.2-3.3 2.4C9.3 9 10.1 7 12 7c1.1 0 2 .4 2 .9zm3.5 6.1c-1.7 1.8-2 1.9-3.4.6-1.3-1.4-1.3-1.8.4-3.6s2-1.9 3.4-.6c1.3 1.4 1.3 1.8-.4 3.6zm-8.2-2.5c.4.8.2 1.7-.3 2-.6.4-1-.3-1-1.4 0-2.5.6-2.7 1.3-.6zM24 12.6c0 .8-.4 1.2-1 .9-.5-.3-1-1-1-1.6 0-.5.5-.9 1-.9.6 0 1 .7 1 1.6zm-2.6 3c.9 2.3.8 2.4-1.2 2.4-2.6 0-3.4-1.1-2.1-2.7 1.5-1.7 2.6-1.7 3.3.3zm-8.5.8c.9 1 .9 1.6.1 2.1-1.3.8-4.2-1.4-3.4-2.6.8-1.3 2-1.1 3.3.5zm5.1 3.2c0 .2-.9.4-2.1.4-1.1 0-1.8-.4-1.4-1 .5-.8 3.5-.3 3.5.6z"/>
</svg>
