<svg xmlns="http://www.w3.org/2000/svg"
    xmlns:xlink="http://www.w3.org/1999/xlink" width="108" height="488" viewBox="0 0 81 366" preserveAspectRatio="xMidYMid meet">
    <path d="M0 67v21h3.5H7V67 46H3.5 0v21zm33-13c0 .5-.7 1-1.5 1-1.2 0-1.5 1.8-1.5 10.5V76h5.1c4.2 0 5.6.5 7.5 2.5C49 85.4 60.2 76 54.5 68.4c-.9-1.1-1.4-4.2-1.5-7.7 0-4.9-.3-5.7-1.9-5.7-1.1 0-2.2-.6-2.5-1.3-.5-1-.7-1-1.2 0-.7 1.6-12.4 1.8-12.4.3a.94.94 0 0 0-1-1c-.5 0-1 .4-1 1zm18 4.6c0 1.1-2.1 1.4-9.5 1.4-7.3 0-9.5-.3-9.5-1.4 0-1 2.2-1.3 9.5-1.4 7.5 0 9.5.3 9.5 1.4zm0 4.9c0 .8-.4 1.5-1 1.5-.5 0-1-.5-1-1.1 0-.5-1.5.1-3.2 1.4-1.8 1.4-3.9 2.2-4.6 2-.7-.3-1.1.3-1 1.4.4 4.7-.1 5.3-4.2 5.3h-4v-6-6h9.5c7.8 0 9.5.3 9.5 1.5zm.8 5.1c4.4 3.1 1.7 10.4-3.9 10.4-3 0-5.9-3.1-5.9-6.2 0-2.3 3.5-5.8 5.8-5.8 1 0 2.8.7 4 1.6z"/>
    <use xlink:href="#B"/>
    <path d="M40.5 64c-.3.5-.1 1 .4 1 .6 0 1.1-.5 1.1-1 0-.6-.2-1-.4-1-.3 0-.8.4-1.1 1z"/>
    <use xlink:href="#B" x="7"/>
    <path d="M33 68a1.08 1.08 0 0 0 1 1c.6 0 1-.5 1-1a.94.94 0 0 0-1-1c-.5 0-1 .4-1 1zm4 .1c0 .5.5.7 1 .4.6-.3 1-.8 1-1.1 0-.2-.4-.4-1-.4-.5 0-1 .5-1 1.1zM33.5 71c-.3.5-.1 1 .4 1 .6 0 1.1-.5 1.1-1 0-.6-.2-1-.4-1-.3 0-.8.4-1.1 1z"/>
    <use xlink:href="#B" y="7"/>
    <path d="M47 71.5c0 2 .5 2.5 2.5 2.5 1.4 0 2.5-.5 2.5-1 0-.6-.7-1-1.5-1a1.54 1.54 0 0 1-1.5-1.5c0-.8-.4-1.5-1-1.5-.5 0-1 1.1-1 2.5zm-14.7 68.1c.3.4 0 1.9-.8 3.5-.8 1.5-1.5 4.7-1.5 7 0 3.5.6 4.8 3.9 8 2.1 2.2 4.8 3.9 5.9 3.9 1.2 0 2.4.4 2.7 1 .3.5-.1 1-.9 1-.9 0-1.6.4-1.6 1 0 .5 1.6 1 3.5 1s3.5-.5 3.5-1a.94.94 0 0 0-1-1c-.5 0-1-.4-1-.8 0-1 6.1-3.5 8-3.2 1.2.2 1.1-.2-.4-1.9-1.6-1.7-1.7-2.5-.7-5.2 2.9-8.4-6.1-16.1-13.9-11.9-1.3.7-2.1.6-3-.5-.7-.8-1.7-1.5-2.3-1.5s-.8.3-.4.6zm1.6 6.7c-3 8.5 5.4 15.1 14.4 11.2 1-.4 1.7-.3 1.7.4 0 .5-1.8 1.5-4 2.1-4.7 1.3-9.8-.4-12.4-4.1-1.8-2.7-2.1-9.1-.5-12.1 1.6-3.1 2.2-1.4.8 2.5zm9.8-3.7c-.3.3-1.2.4-1.9.1-.8-.3-.5-.6.6-.6 1.1-.1 1.7.2 1.3.5zm5 1.9c.3.9.3 1.9-.1 2.2-.8.9-3.7-1.8-3-2.8.8-1.4 2.4-1.1 3.1.6zm-7.7.4c0 1.3-2.6 3.2-3.3 2.4-1.4-1.3-.6-3.3 1.3-3.3 1.1 0 2 .4 2 .9zm3.5 6.1c-1.7 1.8-2 1.9-3.4.6-1.3-1.4-1.3-1.8.4-3.6s2-1.9 3.4-.6c1.3 1.4 1.3 1.8-.4 3.6zm-8.2-2.5c.4.8.2 1.7-.3 2-.6.4-1-.3-1-1.4 0-2.5.6-2.7 1.3-.6zm14.7 1.1c0 .8-.4 1.2-1 .9-.5-.3-1-1-1-1.6 0-.5.5-.9 1-.9.6 0 1 .7 1 1.6zm-2.6 3c.9 2.3.8 2.4-1.2 2.4-2.6 0-3.4-1.1-2.1-2.7 1.5-1.7 2.6-1.7 3.3.3zm-8.5.8c.9 1 .9 1.6.1 2.1-1.3.8-4.2-1.4-3.4-2.6.8-1.3 2-1.1 3.3.5zm5.1 3.2c0 .2-.9.4-2.1.4-1.1 0-1.8-.4-1.4-1 .5-.8 3.5-.3 3.5.6zm-2.7 68.2c-2.7.3-3.3.8-3.3 2.8 0 2.2.4 2.4 4.8 2.4 4.3.1 4.6.2 2.8 1.5-1.1.8-3.2 1.5-4.8 1.5-1.5 0-2.8.4-2.8 1 0 .5 1.4 1 3 1 2 0 3 .5 3 1.5 0 .8-.5 1.5-1.2 1.5-.9 0-.9.3-.1 1.1 1.5 1.5 3.3.3 3.3-2.2 0-1.5.7-1.9 3.5-1.9 1.9 0 3.5-.5 3.5-1 0-.6-1.4-1-3.2-1-3 0-3.1 0-1.3-2 1.6-1.8 1.6-2 .1-2.6-.9-.3-3.2-.4-5.1-.2s-3.5 0-3.5-.4 2.5-.8 5.5-.8c4.2 0 5.5.3 5.5 1.5 0 .8.5 1.5 1 1.5 1.5 0 1.2-4-.2-4.4-2.6-.8-7.4-1.2-10.5-.8zm-7.8 10.4c-3 8.1-4.2 12.8-3.4 12.8.5 0 1.2-.7 1.5-1.5.4-.9 1.9-1.5 3.5-1.5 1.9 0 2.9.5 2.9 1.5 0 .8.5 1.5 1 1.5 1.4 0 1.3-.8-1.1-7.8-2-6-3.5-7.6-4.4-5zm2.8 5.8c.4 1.5 0 2-1.5 2-1.4 0-1.8-.5-1.4-1.6.3-.9.6-2 .6-2.5 0-1.7 1.7-.1 2.3 2.1zm-1.9 66.3c-.2.7-.4 5.4-.2 10.3l.3 8.9H41h5.5v-10-10l-5.3-.3c-3.7-.2-5.4.1-5.8 1.1zm9.6 9.2v8.5h-4-4v-8.5-8.5h4 4v8.5z"/>
    <path d="M31 323c0 3.7 3.8 7.9 7.2 8.1 1.7.1 1.8.3.6.6-3.4.9-1.7 2.3 2.7 2.3 5 0 5.7-.6 2.3-2-2.2-.9-2.2-.9-.2-.9 3.8-.2 7.4-3.9 7.4-7.7 0-1.9-.4-3.4-1-3.4-.5 0-1 1.6-1 3.5 0 4.2-2 5.5-8.4 5.5-5.2 0-7.6-1.9-7.6-6.1 0-1.6-.4-2.9-1-2.9-.5 0-1 1.4-1 3z"/>
    <defs >
        <path id="B" d="M37 64c0 .5.5 1 1.1 1 .5 0 .7-.5.4-1-.3-.6-.8-1-1.1-1-.2 0-.4.4-.4 1z"/>
    </defs>
</svg>
