<svg xmlns="http://www.w3.org/2000/svg"
    xmlns:xlink="http://www.w3.org/1999/xlink" width="40" height="40" viewBox="0 0 30 30" preserveAspectRatio="xMidYMid meet">
    <path d="M5 2c0 .5-.7 1-1.5 1C2.3 3 2 4.8 2 13.5V24h5.1c4.2 0 5.6.5 7.5 2.5C21 33.4 32.2 24 26.5 16.4c-.9-1.1-1.4-4.2-1.5-7.7 0-4.9-.3-5.7-1.9-5.7-1.1 0-2.2-.6-2.5-1.3-.5-1-.7-1-1.2 0C18.7 3.3 7 3.5 7 2a.94.94 0 0 0-1-1c-.5 0-1 .4-1 1zm18 4.6C23 7.7 20.9 8 13.5 8 6.2 8 4 7.7 4 6.6c0-1 2.2-1.3 9.5-1.4 7.5 0 9.5.3 9.5 1.4zm0 4.9c0 .8-.4 1.5-1 1.5-.5 0-1-.5-1-1.1 0-.5-1.5.1-3.2 1.4-1.8 1.4-3.9 2.2-4.6 2-.7-.3-1.1.3-1 1.4.4 4.7-.1 5.3-4.2 5.3H4v-6-6h9.5c7.8 0 9.5.3 9.5 1.5zm.8 5.1c4.4 3.1 1.7 10.4-3.9 10.4-3 0-5.9-3.1-5.9-6.2 0-2.3 3.5-5.8 5.8-5.8 1 0 2.8.7 4 1.6z"/>
    <use xlink:href="#B"/>
    <path d="M12.5 12c-.3.5-.1 1 .4 1 .6 0 1.1-.5 1.1-1 0-.6-.2-1-.4-1-.3 0-.8.4-1.1 1z"/>
    <use xlink:href="#B" x="7"/>
    <path d="M5 16a1.08 1.08 0 0 0 1 1c.6 0 1-.5 1-1a.94.94 0 0 0-1-1c-.5 0-1 .4-1 1zm4 .1c0 .5.5.7 1 .4.6-.3 1-.8 1-1.1 0-.2-.4-.4-1-.4-.5 0-1 .5-1 1.1zM5.5 19c-.3.5-.1 1 .4 1 .6 0 1.1-.5 1.1-1 0-.6-.2-1-.4-1-.3 0-.8.4-1.1 1z"/>
    <use xlink:href="#B" y="7"/>
    <path d="M19 19.5c0 2 .5 2.5 2.5 2.5 1.4 0 2.5-.5 2.5-1 0-.6-.7-1-1.5-1a1.54 1.54 0 0 1-1.5-1.5c0-.8-.4-1.5-1-1.5-.5 0-1 1.1-1 2.5z"/>
    <defs >
        <path id="B" d="M9 12c0 .5.5 1 1.1 1 .5 0 .7-.5.4-1-.3-.6-.8-1-1.1-1-.2 0-.4.4-.4 1z"/>
    </defs>
</svg>
