<svg xmlns="http://www.w3.org/2000/svg" width="40" height="40" viewBox="0 0 30 30" preserveAspectRatio="xMidYMid meet">
    <path d="M15.3 3.8c-2.7.3-3.3.8-3.3 2.8 0 2.2.4 2.4 4.8 2.4 4.3.1 4.6.2 2.8 1.5-1.1.8-3.2 1.5-4.8 1.5-1.5 0-2.8.4-2.8 1 0 .5 1.4 1 3 1 2 0 3 .5 3 1.5 0 .8-.5 1.5-1.2 1.5-.9 0-.9.3-.1 1.1 1.5 1.5 3.3.3 3.3-2.2 0-1.5.7-1.9 3.5-1.9 1.9 0 3.5-.5 3.5-1 0-.6-1.4-1-3.2-1-3 0-3.1 0-1.3-2 1.6-1.8 1.6-2 .1-2.6-.9-.3-3.2-.4-5.1-.2s-3.5 0-3.5-.4 2.5-.8 5.5-.8c4.2 0 5.5.3 5.5 1.5 0 .8.5 1.5 1 1.5 1.5 0 1.2-4-.2-4.4-2.6-.8-7.4-1.2-10.5-.8zM7.5 14.2C4.5 22.3 3.3 27 4.1 27c.5 0 1.2-.7 1.5-1.5.8-2 6.4-2 6.4 0 0 .8.5 1.5 1 1.5 1.4 0 1.3-.8-1.1-7.8-2-6-3.5-7.6-4.4-5zm2.8 5.8c.4 1.5 0 2-1.5 2-1.4 0-1.8-.5-1.4-1.6.3-.9.6-2 .6-2.5 0-1.7 1.7-.1 2.3 2.1z"/>
</svg>
