<svg xmlns="http://www.w3.org/2000/svg" width="40" height="40" viewBox="0 0 30 30" preserveAspectRatio="xMidYMid meet">
    <path d="M9.2 2.7C5.9 4.3 3 8.4 3 11.5c0 .8-.4 1.5-1 1.5s-1 2.8-1 6.5V26l4.8.1c2.6.1 3.7.4 2.5.6-4 .8-2.5 2.3 2.2 2.3 4.4 0 6.1-1.4 2.8-2.3-1-.3-.1-.5 2-.6 5.6-.2 10.7-5.2 11.4-11.3.7-5.7-1.5-10-6.1-12.2-4.3-2-7.2-2-11.4.1zM17 4.9C18.5 7.7 18.3 8 15 8c-1.6 0-3-.3-3-.6C12 6.2 14.1 3 15 3c.5 0 1.4.9 2 1.9zm-6.2.8c-.2 1-1.4 2-2.8 2.2-2.5.3-2.5.3-.6-1.8 2.3-2.6 3.9-2.7 3.4-.4zm11.8.4c1.9 2.1 1.9 2.1-.6 1.8-1.4-.2-2.6-1.2-2.8-2.2-.5-2.3 1.1-2.2 3.4.4zM10 11.5c0 .9-.9 1.5-2.5 1.5S5 12.4 5 11.5 5.9 10 7.5 10s2.5.6 2.5 1.5zm8 0c0 1-1 1.5-3 1.5s-3-.5-3-1.5 1-1.5 3-1.5 3 .5 3 1.5zm7 2c0 3.1-.3 3.5-2.5 3.5s-2.5-.4-2.5-3.5.3-3.5 2.5-3.5 2.5.4 2.5 3.5zm-7 6V24h-7.5H3v-4.5V15h7.5H18v4.5zm5 .4c0 .5-.7 1.1-1.5 1.5-.9.3-1.5 0-1.5-.9a1.54 1.54 0 0 1 1.5-1.5c.8 0 1.5.4 1.5.9z"/>
</svg>
