<svg xmlns="http://www.w3.org/2000/svg" width="40" height="40" viewBox="0 0 30 30" preserveAspectRatio="xMidYMid meet">
    <path d="M8.2 3c-9.4 5.7-9.4 18.3 0 24 6.4 3.9 14.6 1.6 18.8-5.2C34.1 10.1 19.9-4.1 8.2 3zM18 4.9c2 3.8 1.3 5.1-3 5.1-3 0-4-.4-4-1.6C11 5.7 13 3 15 3c1.1 0 2.4.9 3 1.9zM9.1 7.4C8.4 9 7.3 10 6 10c-1.7 0-1.9-.3-1-2 1-1.8 4.1-4.2 4.8-3.6.1.2-.2 1.5-.7 3zM25 8c.9 1.7.8 2-1 2-1.7 0-4-3.2-4-5.6 0-1.1 4 1.8 5 3.6zM8 15c0 2.5-.4 3-2.5 3S3 17.5 3 15s.4-3 2.5-3 2.5.5 2.5 3zm12 0c0 2.9-.1 3-5 3s-5-.1-5-3 .1-3 5-3 5 .1 5 3zm7 0c0 2.5-.4 3-2.5 3s-2.5-.5-2.5-3 .4-3 2.5-3 2.5.5 2.5 3zM9 22.6c.6 1.4 1 2.7 1 3 0 1.1-4-1.8-5-3.6-.9-1.7-.8-2 1-2 1.3 0 2.4 1 3 2.6zm10-1c0 4.8-4.9 7.3-7 3.5-2-3.8-1.3-5.1 3-5.1 3 0 4 .4 4 1.6zm6 .4c-1 1.8-5 4.7-5 3.6 0-2.4 2.3-5.6 4-5.6 1.8 0 1.9.3 1 2z"/>
</svg>
