<svg xmlns="http://www.w3.org/2000/svg"
    xmlns:xlink="http://www.w3.org/1999/xlink" width="40" height="40" viewBox="0 0 30 30" preserveAspectRatio="xMidYMid meet">
    <path d="M1.4 2.4c-.3.7-.4 4.2-.2 7.7l.3 6.4 5.8.3c3.5.2 5.7-.1 5.7-.8 0-.5-2.2-1-5-1H3V9 3h11c9.1 0 11 .3 11 1.5 0 .8.5 1.5 1 1.5.6 0 1-1.1 1-2.5V1H14.5C4.8 1 1.8 1.3 1.4 2.4zM4.5 5c-.3.5-.1 1 .4 1C5.5 6 6 5.5 6 5c0-.6-.2-1-.4-1-.3 0-.8.4-1.1 1z"/>
    <use xlink:href="#B"/>
    <path d="M11.5 5c-.3.5-.1 1 .4 1 .6 0 1.1-.5 1.1-1 0-.6-.2-1-.4-1-.3 0-.8.4-1.1 1z"/>
    <use xlink:href="#B" x="7"/>
    <path d="M18.5 5c-.3.5-.1 1 .4 1 .6 0 1.1-.5 1.1-1 0-.6-.2-1-.4-1-.3 0-.8.4-1.1 1z"/>
    <use xlink:href="#B" x="14"/>
    <path d="M4.5 9c.3.5 1.3 1 2.1 1S8 9.5 8 9c0-.6-.9-1-2.1-1-1.1 0-1.7.4-1.4 1zm5.5.1c0 .5.5.7 1 .4.6-.3 1-.8 1-1.1 0-.2-.4-.4-1-.4-.5 0-1 .5-1 1.1zm5 9.4V29h7 7V18.5 8h-7-7v10.5zm12 0V27h-5-5v-8.5V10h5 5v8.5zm-8.6-6.1c-.3.8-.4 2.5-.2 3.8.2 1.9.9 2.3 3.8 2.3 3.3 0 3.5-.2 3.5-3.5 0-3.2-.3-3.5-3.3-3.8-2.1-.2-3.4.2-3.8 1.2zM24 15c0 1.3-.7 2-2 2s-2-.7-2-2 .7-2 2-2 2 .7 2 2z"/>
    <path d="M21 15a1.08 1.08 0 0 0 1 1c.6 0 1-.5 1-1a.94.94 0 0 0-1-1c-.5 0-1 .4-1 1zm-1 7.5c-1.5 1.8-.5 3.5 2 3.5s3.5-1.7 2-3.5c-1.6-1.9-2.4-1.9-4 0zM4.5 12c-.3.5.3 1 1.4 1 1.2 0 2.1-.5 2.1-1 0-.6-.6-1-1.4-1s-1.8.4-2.1 1zm5.5 0c0 .5.7 1 1.5 1s1.5-.5 1.5-1c0-.6-.7-1-1.5-1s-1.5.4-1.5 1z"/>
    <defs >
        <path id="B" d="M8 5c0 .5.5 1 1.1 1 .5 0 .7-.5.4-1-.3-.6-.8-1-1.1-1-.2 0-.4.4-.4 1z"/>
    </defs>
</svg>
