<svg xmlns="http://www.w3.org/2000/svg" width="40" height="40" viewBox="0 0 30 30" preserveAspectRatio="xMidYMid meet">
    <path d="M20 3c-.8 1.1-2 1.8-2.7 1.6-1.1-.5-5.3 5.9-5.3 7.9 0 1.7 1.9.1 3-2.5.7-1.7 1.5-2.9 1.7-2.6.2.2-1.1 3.5-3 7.2-3.1 6.2-5.4 14.4-4 14.4.3 0 1.8-.9 3.4-2.1 2.8-2 10.2-15.1 11.9-21 1.3-4.5-2.3-6.6-5-2.9zm2.5 3c.7 1.2-8.2 19-9.5 19-1.8 0-1-2.9 3.2-11.5C20.4 5.2 21.3 4 22.5 6zm2.5 5.8c0 .4.5 1.3 1.1 1.9 1.5 1.5.3 3.3-2.2 3.3-1 0-1.9.4-1.9 1 0 1.3 2.6 1.3 5.1 0 2.5-1.4 2.4-4.6-.1-6-1.1-.6-2-.7-2-.2zm-22.3 7c-1 1-1.7 2.8-1.7 4C1 25.4 4.3 29 6.8 29c1.3 0 1-.6-1.2-2.3-2.4-1.9-2.8-2.8-2.2-5 .5-2 1.3-2.7 3.1-2.7 1.3 0 2.7-.5 3-1 1.1-1.8-5.1-1.1-6.8.8z"/>
</svg>
