<svg xmlns="http://www.w3.org/2000/svg"
    xmlns:xlink="http://www.w3.org/1999/xlink" width="40" height="40" viewBox="0 0 30 30" preserveAspectRatio="xMidYMid meet">
    <path d="M1.4 8.3c-.3.8-.4 4.3-.2 7.8l.3 6.4 12.8.3 12.8.3-.3-7.8-.3-7.8-12.3-.3C4.5 7 1.9 7.2 1.4 8.3zM25 15v6H14 3v-6-6h11 11v6z"/>
    <use xlink:href="#B"/>
    <use xlink:href="#C"/>
    <use xlink:href="#B" x="7"/>
    <use xlink:href="#C" x="7"/>
    <use xlink:href="#B" x="14"/>
    <use xlink:href="#C" x="14"/>
    <path d="M4.5 15c-.3.5.3 1 1.4 1 1.2 0 2.1-.5 2.1-1 0-.6-.6-1-1.4-1s-1.8.4-2.1 1zm5.5 0c0 .5.5 1 1.1 1 .5 0 .7-.5.4-1-.3-.6-.8-1-1.1-1-.2 0-.4.4-.4 1zm3 0a1.08 1.08 0 0 0 1 1c.6 0 1-.5 1-1a.94.94 0 0 0-1-1c-.5 0-1 .4-1 1zm4 0c0 .5.5 1 1.1 1 .5 0 .7-.5.4-1-.3-.6-.8-1-1.1-1-.2 0-.4.4-.4 1z"/>
    <path d="M20 15c0 .5.9 1 2 1s2-.5 2-1c0-.6-.9-1-2-1s-2 .4-2 1zM4.5 19c.3.5 1.3 1 2.1 1S8 19.5 8 19c0-.6-.9-1-2.1-1-1.1 0-1.7.4-1.4 1zm5.5 0c0 .5 1.8 1 3.9 1 2.2 0 4.3-.5 4.6-1 .4-.6-1.2-1-3.9-1-2.5 0-4.6.4-4.6 1zm10.8.2c.9.9 1.5.9 2.4 0S23.9 18 22 18s-2.1.3-1.2 1.2z"/>
    <defs >
        <path id="B" d="M4.5 12c.3.5.8 1 1.1 1 .2 0 .4-.5.4-1 0-.6-.5-1-1.1-1-.5 0-.7.4-.4 1z"/>
        <path id="C" d="M8 12.1c0 .5.5.7 1 .4.6-.3 1-.8 1-1.1 0-.2-.4-.4-1-.4-.5 0-1 .5-1 1.1z"/>
    </defs>
</svg>
