<svg xmlns="http://www.w3.org/2000/svg" width="40" height="40" viewBox="0 0 30 30" preserveAspectRatio="xMidYMid meet">
    <path d="M11.2 2.2c-1.7 1.7-1.5 5.7.3 6.4.8.4 1.5 1.5 1.5 2.5 0 1.5-.7 1.9-3.4 1.9-3.4 0-3.5.2-5.7 6.7l-2.7 8C.9 28.7 3.8 29 14 29s13.1-.3 12.8-1.3c-.3-.6-1.5-4.2-2.7-8-2.2-6.5-2.3-6.7-5.7-6.7-3.9 0-4.2-1.1-1.4-4.7 1.8-2.3 1.9-2.9.7-4.7C16 1.1 13 .4 11.2 2.2zm5.2 1.7c1 1.6-.6 4.2-2.3 3.9-.9-.2-1.7-1.3-1.9-2.6-.3-1.6.2-2.2 1.7-2.2 1.1 0 2.2.4 2.5.9zM13 18.5c0 1.9.5 3.5 1 3.5.6 0 1-1.6 1-3.5 0-3.2.3-3.5 2.9-3.5 2.7 0 3.1.5 4.9 6l2.1 6H14.4C8.7 27 4 26.7 4 26.3c0-.3.8-3 1.7-6 1.5-4.8 2-5.3 4.5-5.3s2.8.3 2.8 3.5z"/>
</svg>
