<svg xmlns="http://www.w3.org/2000/svg" width="40" height="40" viewBox="0 0 30 30" preserveAspectRatio="xMidYMid meet">
    <path d="M1 15v10h14 14V15 5H15 1v10zm4.7-6.8c.7-1.7 17.9-1.7 18.6 0 .4 1 .8.9 1.6-.2s1.1.7 1.1 6.9c0 7.3-.2 8.2-1.5 7.1-1-.9-1.5-.9-1.5-.1 0 .7-3 1.1-9 1.1s-9-.4-9-1.1c0-.8-.5-.8-1.5.1-1.3 1.1-1.5.2-1.5-7.1 0-6.2.3-8 1.1-6.9s1.2 1.2 1.6.2zM4.5 12c.3.5.8 1 1.1 1 .2 0 .4-.5.4-1 0-.6-.5-1-1.1-1-.5 0-.7.4-.4 1z"/>
    <path d="M24 12.1c0 .5.5.7 1 .4.6-.3 1-.8 1-1.1 0-.2-.4-.4-1-.4-.5 0-1 .5-1 1.1zM4.5 15c-.3.5-.1 1 .4 1 .6 0 1.1-.5 1.1-1 0-.6-.2-1-.4-1-.3 0-.8.4-1.1 1z"/>
    <path d="M24 15c0 .5.5 1 1.1 1 .5 0 .7-.5.4-1-.3-.6-.8-1-1.1-1-.2 0-.4.4-.4 1zM4.5 19c.3.5.8 1 1.1 1 .2 0 .4-.5.4-1 0-.6-.5-1-1.1-1-.5 0-.7.4-.4 1zm19.5.1c0 .5.5.7 1 .4.6-.3 1-.8 1-1.1 0-.2-.4-.4-1-.4-.5 0-1 .5-1 1.1z"/>
</svg>
