<svg xmlns="http://www.w3.org/2000/svg" width="40" height="40" viewBox="0 0 30 30" preserveAspectRatio="xMidYMid meet">
    <path d="M16.7 2.8c-1.9 2.1-2.2 5.3-.7 6.8 1.8 1.8-1.4 3.8-3.9 2.4C8 9.9 2.9 15 5 19.1c.9 1.6.8 2.4-.4 3.8-1.7 1.9-2.1 4.1-.7 4.1.5 0 1.1-.9 1.4-2 .3-1 1.7-2.2 3.3-2.6 2.2-.6 3.2-.2 5.1 2.1 3 3.5 4.4 2.4 1.6-1.3-1.2-1.6-1.7-3.3-1.3-4.2.5-.8 1.3-2.7 1.9-4.3 1.5-3.8 6.1-3.8 9 .1 1.7 2.3 2 2.4 2.1.8 0-1.1-.7-2.7-1.6-3.7-1.2-1.4-1.3-2.2-.4-3.9 2.6-4.9-4.5-9.4-8.3-5.2zm6.2 1.6c2.3 2.8-1.7 6.8-4.5 4.5-1.5-1.2-1.9-4.1-.7-5.2 1.1-1.2 4-.8 5.2.7zm-11.1 9.8c3 3-.1 7.3-3.6 5.1-2.3-1.4-2.5-2.9-.7-4.7 2-1.9 2.7-2 4.3-.4z"/>
</svg>
