<svg xmlns="http://www.w3.org/2000/svg"
    xmlns:xlink="http://www.w3.org/1999/xlink" width="40" height="40" viewBox="0 0 30 30" preserveAspectRatio="xMidYMid meet">
    <path d="M12.3 2.4C11.9 3.2 9.9 4 8 4.2l-3.5.3-.3 12.3L3.9 29H15h11.1l-.3-12.2-.3-12.3-3.5-.3c-1.9-.2-3.9-1-4.3-1.8S16 1 15 1s-2.3.6-2.7 1.4zm4.3 2.1c.4.8 1.2 1.5 2 1.5s1.4.4 1.4 1c0 .5-2.2 1-5 1-2.7 0-5-.5-5-1 0-.6.6-1 1.4-1s1.6-.7 2-1.5c.3-.8 1-1.5 1.6-1.5s1.3.7 1.6 1.5zM8 8c0 1.8.7 2 7 2s7-.2 7-2c0-1.1.5-2 1-2 .6 0 1 4.2 1 10.5V27h-9-9V16.5C6 10.2 6.4 6 7 6s1 .9 1 2zm3.5 3.9c-.3.6-1.1.9-1.6.6-.5-.4-.9-.2-.9.4 0 1.8 1.7 2.1 3 .6.7-.9 1-1.8.7-2.1s-.8 0-1.2.5z"/>
    <use xlink:href="#B"/>
    <path d="M11.5 17c-.4.6-1.1.8-1.6.5-.5-.4-.9-.2-.9.4 0 1.8 2.2 2.3 3.7.8.9-.9 1.1-1.7.5-2.1-.6-.3-1.3-.2-1.7.4z"/>
    <use xlink:href="#B" y="5"/>
    <path d="M8.4 23.1c-.2.4.2 1.2 1 1.8 1 .8 1.7.6 3-.8 1.7-1.8 1.6-1.9-.9-1.7-1.5 0-2.9.4-3.1.7z"/>
    <use xlink:href="#B" y="11"/>
    <defs >
        <path id="B" d="M15 14c0 .5 1.6 1 3.5 1s3.5-.5 3.5-1c0-.6-1.6-1-3.5-1s-3.5.4-3.5 1z"/>
    </defs>
</svg>
