<svg xmlns="http://www.w3.org/2000/svg"
    xmlns:xlink="http://www.w3.org/1999/xlink" width="40" height="40" viewBox="0 0 30 30" preserveAspectRatio="xMidYMid meet">
    <path d="M6 2c0 .5-1.1 1-2.5 1H1v12 12h14 14V15 3h-2.4c-1.3 0-2.7-.6-3-1.3-.5-1-.7-1-1.2 0C21.7 3.3 8 3.5 8 2a.94.94 0 0 0-1-1c-.5 0-1 .4-1 1zm21 4.6C27 7.7 24.6 8 15 8S3 7.7 3 6.6s2.4-1.4 12-1.4 12 .3 12 1.4zm0 10.9V25H15 3v-7.5V10h12 12v7.5z"/>
    <use xlink:href="#B"/>
    <use xlink:href="#C"/>
    <use xlink:href="#C" x="5"/>
    <use xlink:href="#D"/>
    <path d="M11.5 16c.3.5.8 1 1.1 1 .2 0 .4-.5.4-1 0-.6-.5-1-1.1-1-.5 0-.7.4-.4 1zm5.5.1c0 .5.5.7 1 .4.6-.3 1-.8 1-1.1 0-.2-.4-.4-1-.4-.5 0-1 .5-1 1.1z"/>
    <use xlink:href="#D" x="16"/>
    <use xlink:href="#B" x="-5" y="7"/>
    <use xlink:href="#B" y="7"/>
    <use xlink:href="#C" y="7"/>
    <use xlink:href="#C" x="5" y="7"/>
    <use xlink:href="#D" y="7"/>
    <path d="M11.5 23c.3.5.8 1 1.1 1 .2 0 .4-.5.4-1 0-.6-.5-1-1.1-1-.5 0-.7.4-.4 1zm5.5.1c0 .5.5.7 1 .4.6-.3 1-.8 1-1.1 0-.2-.4-.4-1-.4-.5 0-1 .5-1 1.1z"/>
    <defs >
        <path id="B" d="M11.5 12c-.3.5-.1 1 .4 1 .6 0 1.1-.5 1.1-1 0-.6-.2-1-.4-1-.3 0-.8.4-1.1 1z"/>
        <path id="C" d="M17 12c0 .5.5 1 1.1 1 .5 0 .7-.5.4-1-.3-.6-.8-1-1.1-1-.2 0-.4.4-.4 1z"/>
        <path id="D" d="M6 16a1.08 1.08 0 0 0 1 1c.6 0 1-.5 1-1a.94.94 0 0 0-1-1c-.5 0-1 .4-1 1z"/>
    </defs>
</svg>
