<svg xmlns="http://www.w3.org/2000/svg" width="40" height="40" viewBox="0 0 30 30" preserveAspectRatio="xMidYMid meet">
    <path d="M7.3 3a12.75 12.75 0 0 0-4 18.1c2.9 4.3 6 5.9 11.6 5.9 3.7 0 4.9-.5 8.2-3.9 3.4-3.3 3.9-4.5 3.9-8.2 0-5.6-1.6-8.7-5.9-11.6C16.9.5 11.6.3 7.3 3zm12.6 1.4C23.2 6.2 25 9.8 25 15c0 5.4-4.6 10-10 10-7.8 0-12-4.1-12-11.6C3 8.3 8.3 3 13.4 3c2.1 0 4.9.6 6.5 1.4zM13 9a1.08 1.08 0 0 0 1 1c.6 0 1-.5 1-1a.94.94 0 0 0-1-1c-.5 0-1 .4-1 1zm.7 2.7c-1.1 1-.8 8.3.3 8.3.6 0 1-2 1-4.5 0-4.6-.2-5-1.3-3.8z"/>
</svg>
