<svg xmlns="http://www.w3.org/2000/svg" width="40" height="40" viewBox="0 0 30 30" preserveAspectRatio="xMidYMid meet">
    <path d="M3.3 4.6c-.8 2.1.9 4.8 3.3 5.3 2.8.5 5.1 2.8 4.9 5C11.3 17.5 9.1 20 7 20c-2.3 0-4.3 2.4-3.8 4.7.7 3.7 6.8 2.2 6.8-1.7 0-2 2.8-4.5 5.1-4.5S20 20.9 20 23c0 2.3 2.4 4.3 4.7 3.8 3.7-.7 2.2-6.8-1.7-6.8-2.1 0-4.5-2.6-4.5-4.9S21 10 23 10c3.9 0 5.4-6.1 1.7-6.8C22.4 2.7 20 4.7 20 7c0 2.1-2.6 4.5-4.9 4.5C12.9 11.5 10 9 10 7c0-3.6-5.5-5.6-6.7-2.4zm4.5 1.6C7.2 8 5 8.3 5 6.6A1.58 1.58 0 0 1 6.6 5c.9 0 1.4.5 1.2 1.2zm17.2.4c0 1.7-2.2 1.4-2.8-.4-.2-.7.3-1.2 1.2-1.2A1.58 1.58 0 0 1 25 6.6zm-8.4 7.5c1 1.7-1.3 3.6-2.7 2.2-1.2-1.2-.4-3.3 1.1-3.3.5 0 1.2.5 1.6 1.1zm-8.8 9.7c.2.7-.3 1.2-1.2 1.2A1.58 1.58 0 0 1 5 23.4c0-1.7 2.2-1.4 2.8.4zm17.2-.3a1.54 1.54 0 0 1-1.5 1.5c-1.6 0-2-1.2-.8-2.3 1.1-1.2 2.3-.8 2.3.8z"/>
</svg>
