<svg xmlns="http://www.w3.org/2000/svg" width="40" height="40" viewBox="0 0 30 30" preserveAspectRatio="xMidYMid meet">
    <path d="M10.4 2.5C10 3.4 8.5 4 6.4 4H3v11.5V27h5c2.8 0 5 .4 5 1s3 1 7 1h7v-9c0-7.2-.3-9-1.4-9-.9 0-1.6-1.2-1.8-3.3-.3-2.8-.7-3.2-3.5-3.5-1.7-.2-3.7-1-4.3-1.8-1.6-1.8-4.9-1.8-5.6.1zm4.6 2A1.54 1.54 0 0 0 16.5 6c.8 0 1.5.4 1.5 1 0 .5-2.2 1-5 1-2.7 0-5-.5-5-1 0-.6.9-1 2-1s2-.7 2-1.5A1.54 1.54 0 0 1 13.5 3 1.54 1.54 0 0 1 15 4.5zM13.1 10c6.2 0 6.9-.2 6.9-2 0-1.1.5-2 1-2 .6 0 1 1.1 1 2.4 0 2.2-.5 2.5-4.2 2.8l-4.3.3-.3 6.7-.3 6.8H9 5l.1-9.8c.1-5.3.4-8.7.6-7.5.4 2.1 1 2.3 7.4 2.3zM25 20v7h-5-5v-7-7h5 5v7z"/>
</svg>
