<svg xmlns="http://www.w3.org/2000/svg" width="40" height="40" viewBox="0 0 30 30" preserveAspectRatio="xMidYMid meet">
    <path d="M16 3c-1.1 1.1-2.3 3.3-2.6 4.9-.4 1.7-3.1 5.3-6.5 8.7C1 22.4-.2 25.4 2.2 27.8S7.6 29 13.5 23c3.3-3.3 6.5-6 7.3-6 2.7 0 7.2-3.1 7.8-5.5.3-1.4.3-3.7 0-5.1l-.7-2.7L25 6.5c-3.8 3.7-5.2 2.4-1.6-1.4 2.3-2.4 2.5-2.9 1.1-3.5C21.4.4 18 1 16 3zm5 2.5c-2.2 2.4-2.3 2.7-.7 4.2 1.5 1.6 1.8 1.5 4.2-.7L27 6.7v2.6c0 2.6-3.1 5.7-5.9 5.7-.8 0-4.3 2.7-7.8 6.1-3.8 3.7-7 5.9-8 5.7-3.6-.7-2.5-3.8 3.6-10.1 3.4-3.5 6.1-7 6.1-7.8C15 6.1 18.1 3 20.7 3h2.6L21 5.5z"/>
</svg>
