<svg xmlns="http://www.w3.org/2000/svg" width="40" height="40" viewBox="0 0 30 30" preserveAspectRatio="xMidYMid meet">
    <path d="M9.7 4.7C8.6 5.9 8 6 8 5.2c0-.7-.4-1-1-.7-.5.3-1 1.7-1 3.1 0 1.9.5 2.4 2.4 2.4 1.4 0 2.8-.5 3.1-1 .3-.6-.1-1-1.1-1C9.1 8 9 7.7 10 6.5c2-2.4 8.6-1.9 10.4.7 3.5 4.9.7 10.8-5 10.8-2.1 0-4.2-.8-5.4-2-2.4-2.4-3.4-2.6-2.6-.5.4 1.2-.3 1.5-2.9 1.5H1v5 5h14 14v-5-5h-3.5c-3.2 0-3.5-.2-2.5-1.9 1.6-3.1 1.2-5.7-1.6-9C19.4 3.7 18 3 15.1 3c-2.1 0-4.4.7-5.4 1.7zM27 22.2V25H15 3v-2.8-2.9h12 12v2.9z"/>
</svg>
