<svg xmlns="http://www.w3.org/2000/svg" width="40" height="40" viewBox="0 0 30 30" preserveAspectRatio="xMidYMid meet">
    <path d="M10.1 4.4c-.8 1-.9 1.6-.1 2.1.5.3 1 2.4 1 4.6 0 2.1.5 3.9 1 3.9.6 0 1-2.1 1-4.6 0-2.7.4-4.3 1-3.9 1.4.9 1.3-.8-.2-2.3-1.6-1.6-2.3-1.5-3.7.2zM17 7.6c0 2.7-.4 4.3-1 3.9-1.5-.9-1.2 1.1.4 2.4 2.1 1.8 3.3-.7 2.8-6.2-.5-6-2.2-6.2-2.2-.1zM4 14.9c0 4.9-.4 7.2-1.5 8.1-.8.7-1.5 1.9-1.5 2.6C1 26.7 3.8 27 15 27s14-.3 14-1.4c0-.7-.7-1.9-1.5-2.6-1.1-.9-1.5-3.2-1.5-8.1 0-6.7-.1-6.9-2.5-6.9-1.4 0-2.5.4-2.5 1 0 .5.7 1 1.5 1 1.1 0 1.5 1.2 1.5 5v5h-9-9v-5c0-3.8.4-5 1.5-5C8.3 10 9 9.5 9 9c0-.6-1.1-1-2.5-1C4.1 8 4 8.2 4 14.9zm22 8.6c1.1 1.3-.2 1.5-11 1.5s-12.1-.2-11-1.5C5 22.4 7.5 22 15 22s10 .4 11 1.5z"/>
</svg>
