<svg xmlns="http://www.w3.org/2000/svg" width="40" height="40" viewBox="0 0 30 30" preserveAspectRatio="xMidYMid meet">
    <path d="M6 2.3C.4 5.1-.6 12.6 4 17.2c2.6 2.5 3.7 2.9 7 2.6 2.8-.2 4 0 4 .9 0 .7.7 1.3 1.5 1.3s1.5.7 1.5 1.6.9 1.8 2 2.1 2 1.2 2 1.9c0 .9 1.2 1.4 3.5 1.4 3.3 0 3.5-.2 3.5-3.3 0-2.6-1-4.2-4.5-7.7-3.6-3.5-4.5-5.1-4.5-7.8C20 3.4 12.4-.9 6 2.3zM16 5c1.3 1.3 2 3.3 2 5.8 0 3.2.7 4.5 4.5 8.2 4.5 4.4 5.8 8 3 8a1.54 1.54 0 0 1-1.5-1.5c0-.8-.9-1.5-2-1.5-1.3 0-2-.7-2-2 0-1.1-.7-2-1.5-2a1.54 1.54 0 0 1-1.5-1.5c0-1.1-1-1.3-4.9-.8-4.1.5-5.2.2-7-1.6-2.8-2.8-2.8-7.8.1-10.8 2.7-2.9 8-3.1 10.8-.3zM6.4 7.1c-1 1.7 1.3 3.6 2.7 2.2C10.3 8.1 9.5 6 8 6c-.5 0-1.2.5-1.6 1.1z"/>
</svg>
