<svg xmlns="http://www.w3.org/2000/svg" width="40" height="40" viewBox="0 0 30 30" preserveAspectRatio="xMidYMid meet">
    <path d="M10 6.5C10 7.6 8.8 8 5.5 8H1v9 9h14 14v-9-9h-4.5C21.2 8 20 7.6 20 6.5S18.8 5 15 5s-5 .4-5 1.5zm6.8 1.2c-1 .2-2.6.2-3.5 0-1-.3-.2-.5 1.7-.5s2.7.2 1.8.5zM27 11.4c0 2.1-5.8 4.1-12 4.1-5.9.1-12-2.1-12-4.2 0-1 2.8-1.3 12-1.3 9.5 0 12 .3 12 1.4zM7.3 16.6c1.8.9 3.6 2.3 4 3 1 1.8 6.4 1.8 7.4 0 .7-1.2 6.4-4.6 7.8-4.6.3 0 .5 2 .5 4.5V24H15 3v-4.5c0-2.5.2-4.5.5-4.5.4 0 2 .7 3.8 1.6zM17 18c0 .5-.9 1-2 1s-2-.5-2-1c0-.6.9-1 2-1s2 .4 2 1z"/>
</svg>
