<svg xmlns="http://www.w3.org/2000/svg" width="40" height="40" viewBox="0 0 30 30" preserveAspectRatio="xMidYMid meet">
    <path d="M13 3.5c0 1.4.5 2.5 1 2.5.6 0 1-1.1 1-2.5S14.6 1 14 1c-.5 0-1 1.1-1 2.5zM4.6 4.8c-.7 1.1 3.1 4.8 4.1 3.8.4-.3-.2-1.6-1.4-2.7C6.2 4.7 5 4.2 4.6 4.8zM21 6.5c-2 2.4-.6 2.8 1.5.5 1-1.1 1.3-2 .8-2-.6 0-1.6.7-2.3 1.5zM10 10c-3.9 3.9-1.4 10 4.2 10 5.1 0 7.8-6.9 4-10.3-2.5-2.3-5.8-2.1-8.2.3zm6.8.9c.8.5 1.2 2.1 1 3.7-.3 2.6-.7 2.9-3.8 2.9-2.9 0-3.6-.4-3.8-2.3-.6-4.1 3.1-6.5 6.6-4.3zM1 14c0 .5 1.1 1 2.5 1S6 14.5 6 14c0-.6-1.1-1-2.5-1S1 13.4 1 14zm21 0c0 .5 1.1 1 2.5 1s2.5-.5 2.5-1c0-.6-1.1-1-2.5-1s-2.5.4-2.5 1zm-2.4 5.8c-.3.5.3 1.7 1.3 2.6 1.1 1 2.2 1.3 2.5.8s-.3-1.7-1.3-2.6c-1.1-1-2.2-1.3-2.5-.8zM6 21.5c-2 2.4-.6 2.8 1.5.5 1-1.1 1.3-2 .8-2-.6 0-1.6.7-2.3 1.5zm7 3c0 1.4.5 2.5 1 2.5.6 0 1-1.1 1-2.5s-.4-2.5-1-2.5c-.5 0-1 1.1-1 2.5z"/>
</svg>
