<svg xmlns="http://www.w3.org/2000/svg" width="40" height="40" viewBox="0 0 30 30" preserveAspectRatio="xMidYMid meet">
    <path d="M23 3.5c0 .2.9 1.9 2 3.7 2.6 4.3 2.6 11.3 0 15.6-2.3 3.7-2.4 4.2-1 4.2 1.7 0 5-8.1 5-12S25.7 3 24 3c-.5 0-1 .2-1 .5zM7.5 7c-1.6 1.7-3.7 3-4.7 3-1.5 0-1.8.8-1.8 5s.3 5 1.8 5c1 0 2.9 1.1 4.2 2.5 4.3 4.6 5 3.5 5-7.4 0-5.5-.4-10.2-.8-10.5-.5-.3-2.2.8-3.7 2.4zm2.5 8.2v7.1l-2.3-2.1C6.4 19 4.8 18 4.2 18 3.5 18 3 16.6 3 15c0-1.8.5-3 1.3-3s2.2-.9 3.2-2 2-2 2.2-2c.1 0 .3 3.2.3 7.2z"/>
    <path d="M20.4 9.8c.9 1.7 1.6 4 1.6 5.2s-.7 3.5-1.6 5.2c-1.2 2.3-1.3 2.9-.2 2.6C22 22.2 24 18.1 24 15s-2-7.2-3.8-7.8c-1.1-.3-1 .3.2 2.6zm-4.7.8c-.3.3-.1 1.5.6 2.5.9 1.5.9 2.3 0 3.9-.8 1.2-.9 2.1-.3 2.5 1.6 1 3.1-4.2 2-7-1-2.6-1.3-2.9-2.3-1.9z"/>
</svg>
