<svg xmlns="http://www.w3.org/2000/svg" width="40" height="40" viewBox="0 0 30 30" preserveAspectRatio="xMidYMid meet">
    <path d="M1 13c0 8.2.2 9 1.9 9 1.1 0 2.3-.5 2.6-1 .3-.6-.1-1-.9-1C3.3 20 3 18.7 3 13V6h12 12v4.4c0 2.5.5 4.8 1 5.1.6.4 1-1.7 1-5.4V4H15 1v9zm10.3 4.1C9.5 18.3 8 19.6 8 20c0 1.7 6.9 5 10.5 5S29 21.7 29 20c0-.5-1.5-1.8-3.4-2.9-4.3-2.7-10.2-2.7-14.3 0zm9.5.1c1.7 1.7 1.5 4.3-.4 5.9-3.1 2.6-7-2.5-4.4-5.6 1.5-1.8 3.2-1.9 4.8-.3zM13.7 20c0 2.5-.3 2.8-1.6 1.8-.9-.7-1.8-1.4-2-1.5-.3-.2 2.6-2.9 3.5-3.3 0 0 .1 1.3.1 3zM27 20c0 .3-.8 1-1.8 1.7-1.6 1-1.9.8-1.9-1.7s.3-2.7 1.9-1.7c1 .7 1.8 1.4 1.8 1.7zm-10 0c0 .5.7 1 1.5 1s1.5-.5 1.5-1c0-.6-.7-1-1.5-1s-1.5.4-1.5 1z"/>
</svg>
