<svg xmlns="http://www.w3.org/2000/svg" width="40" height="40" viewBox="0 0 30 30" preserveAspectRatio="xMidYMid meet">
    <path d="M8.2 3c-6 3.7-9.4 12.7-5.6 14.8 1 .6 3 .5 5.1-.1 4.6-1.4 6 0 4.6 4.6-.6 2.1-.7 4.1-.1 5.1 2.1 3.8 11.1.4 14.8-5.6C34.1 10.1 19.9-4.1 8.2 3zM21 4.5C31 9.7 27.2 27 16.1 27c-2.5 0-3.7-1.8-2.2-3.3 1.6-1.6 1.4-4.8-.6-6.9-1.8-2-5.3-2.4-7-.7-1.5 1.5-3.3.3-3.3-2.2C3 5.7 13.2.4 21 4.5zM12 8c0 1.3.5 2 1.3 1.7.6-.2 1.2-1 1.2-1.7s-.6-1.5-1.2-1.8C12.5 6 12 6.7 12 8zm6.6.9c-.3.5.1 1.4.8 2 1.6 1.3 3.2-.2 2.1-1.9-.8-1.2-2.2-1.3-2.9-.1zm-12.1 2c-.7 1.2 1.2 2.4 2.5 1.6 1.1-.7.4-2.5-1-2.5-.5 0-1.1.4-1.5.9zm14.2 4.7c-1.3 1.3-.7 2.4 1.4 2.4 1.1 0 1.9-.5 1.7-1.2-.5-1.4-2.2-2.1-3.1-1.2zM17.5 21c-.4.6-.3 1.6.3 2.2s1.2.6 1.7-.2c.4-.6.3-1.6-.3-2.2s-1.2-.6-1.7.2z"/>
</svg>
