<svg xmlns="http://www.w3.org/2000/svg" width="40" height="40" viewBox="0 0 30 30" preserveAspectRatio="xMidYMid meet">
    <path d="M1 9.5V14h9.1 9l-.3-4.3-.3-4.2-8.7-.3L1 4.9v4.6zm16 0c0 2.4-.2 2.5-7 2.5s-7-.1-7-2.5S3.2 7 10 7s7 .1 7 2.5zm3.7-3.8c-.4.3-.7 2.4-.7 4.5V14h4.5H29V9.5 5h-3.8c-2.1 0-4.2.3-4.5.7zM27 9.5c0 2-.5 2.5-2.5 2.5S22 11.5 22 9.5 22.5 7 24.5 7s2.5.5 2.5 2.5zm-26 11V25h4.5H10v-4.5V16H5.5 1v4.5zm7 0c0 2-.5 2.5-2.5 2.5S3 22.5 3 20.5 3.5 18 5.5 18s2.5.5 2.5 2.5zm3.2-.3l.3 4.3 8.8.3 8.7.3v-4.6V16h-9.1-9l.3 4.2zm15.8.3c0 2.4-.2 2.5-7 2.5s-7-.1-7-2.5.2-2.5 7-2.5 7 .1 7 2.5z"/>
</svg>
