<svg xmlns="http://www.w3.org/2000/svg" width="40" height="40" viewBox="0 0 30 30" preserveAspectRatio="xMidYMid meet">
    <path d="M17.2 8.2c-3.7 3.4-7 7-7.4 8S8.2 18 7.1 18s-2.3.4-2.6 1c-.4.6 1.4 1 4.5 1 5.1 0 5.3-.1 11.6-6.8 6.4-6.8 7.6-9.5 4.9-10.6-1-.4-3.9 1.6-8.3 5.6zm5.3.8c-1.6 1.6-3.2 2.7-3.7 2.4-.6-.4.5-2.2 2.3-4.1C23 5.5 24.6 4.4 24.8 5c.3.7-.8 2.5-2.3 4zm-5 4c.3.5.1 1-.4 1-.6 0-1.1-.5-1.1-1 0-.6.2-1 .4-1 .3 0 .8.4 1.1 1zM15 16.5c0 .8-.9 1.5-2 1.5-1.3 0-1.8-.5-1.4-1.5.8-1.9 3.4-1.9 3.4 0zM1 16v8l6.3.1c3.4.1 5.4.3 4.5.6-3.4.9-1.7 2.3 2.7 2.3 5 0 5.7-.6 2.3-2-1.8-.7-.8-.9 4-.9L27 24v-7.1c0-4.4-.4-6.8-1-6.4-.5.3-1 3.1-1 6.1V22H14 3v-6-6h4.9c2.8 0 5.3-.5 5.6-1 .4-.6-1.8-1-5.9-1H1v8z"/>
</svg>
