<svg xmlns="http://www.w3.org/2000/svg" width="37.333" height="33.333" viewBox="0 0 28 25" preserveAspectRatio="xMidYMid meet">
    <path d="M0 10v10h5c2.8 0 5-.5 5-1 0-.6-1.1-1-2.5-1S5 17.5 5 16.9c0-.8-.5-.8-1.5.1-1.3 1.1-1.5.2-1.5-7.1 0-6.2.3-8 1.1-6.9s1.2 1.2 1.6.2c.7-1.7 17.9-1.7 18.6 0 .4 1 .8.9 1.6-.2S26 2.8 26 6.7c0 2.8.5 5.5 1 5.8.6.4 1-1.8 1-5.9V0H14 0v10zm3.5-3c.3.5.8 1 1.1 1 .2 0 .4-.5.4-1 0-.6-.5-1-1.1-1-.5 0-.7.4-.4 1z"/>
    <path d="M23 7.1c0 .5.5.7 1 .4.6-.3 1-.8 1-1.1 0-.2-.4-.4-1-.4-.5 0-1 .5-1 1.1zM3.5 10c-.3.5-.1 1 .4 1 .6 0 1.1-.5 1.1-1 0-.6-.2-1-.4-1-.3 0-.8.4-1.1 1z"/>
    <path d="M23 10c0 .5.5 1 1.1 1 .5 0 .7-.5.4-1-.3-.6-.8-1-1.1-1-.2 0-.4.4-.4 1zM3.5 14c.3.5.8 1 1.1 1 .2 0 .4-.5.4-1 0-.6-.5-1-1.1-1-.5 0-.7.4-.4 1zm8.1 3.7c-1.4 4.2-1.4 4.9-.1 6.2s1.7 1.3 3.3-.2c2.3-2.1 7-2.2 9.3-.1 3.6 3.3 5.1-.9 2.5-7.1-1.5-3.4-1.6-3.5-7.5-3.5h-5.9l-1.6 4.7zm13.5 0c.5 1.3.9 3.1.9 4 0 1.4-.2 1.4-1.8 0-2.4-2.2-7-2.2-9.4 0-2.5 2.3-3.2 1.1-1.8-3.1 1.1-3.4 1.3-3.5 6.1-3.4 4.4 0 5.1.3 6 2.5z"/>
</svg>
