<svg xmlns="http://www.w3.org/2000/svg" width="36" height="36" viewBox="0 0 27 27" preserveAspectRatio="xMidYMid meet">
    <path d="M7.3 1.5C3.3 3.2 0 8.4 0 13c0 4.4 3 9.4 6.9 11.5 8.3 4.2 17.8-.6 18.8-9.6C26.9 4.1 17.3-2.9 7.3 1.5zm11.6 1.9C22.2 5.2 24 8.8 24 14c0 5.4-4.6 10-10 10-7.8 0-12-4.1-12-11.6 0-2.8.8-4.4 3.4-7 3.8-3.8 8.5-4.5 13.5-2zM9.2 4.5C3.7 6.9 1.6 15.8 5.8 19.2c1.3 1.1 1.5 1 .8-1.2-1.9-6.4-1.9-6.9 1.3-10.1 2.6-2.6 3.7-3 6.1-2.5 1.7.3 3 .1 3-.4 0-.6-.4-1-.9-1s-1.5-.2-2.3-.5c-.7-.2-2.8.2-4.6 1zm7.8 4c-1.2 1.3-2.6 2.2-3.1 2-.4-.3-1.5.2-2.4 1.1-1.5 1.5-1.5 1.8-.1 3.2 1.2 1.3 1.8 1.3 3 .2.9-.7 1.6-1.7 1.6-2.3s1-2.1 2.2-3.4 1.9-2.5 1.6-2.8c-.2-.3-1.5.6-2.8 2zM14 13c0 .5-.5 1-1.1 1-.5 0-.7-.5-.4-1 .3-.6.8-1 1.1-1 .2 0 .4.4.4 1zm6.8-.4c-.3 2.1-.9 4.8-1.3 5.9-.8 1.8-.7 1.8.7.7 2.1-1.7 3.2-6.6 2-8.8-.8-1.4-1.1-.9-1.4 2.2z"/>
</svg>
