<svg xmlns="http://www.w3.org/2000/svg" width="40" height="40" viewBox="0 0 30 30" preserveAspectRatio="xMidYMid meet">
    <path d="M18.5 5.2c-6.9 2.4-12 8.7-13.9 17-1.1 4.7 1.1 3.1 2.3-1.6.6-2.4 2.3-5.8 3.7-7.6 2.9-3.4 9.2-7 12.3-7 1.1 0 2.3-.5 2.6-1 .8-1.3-3.1-1.2-7 .2zm1.5 4.9c-5 2-10 8.4-10 12.9 0 1.1.5 2 1 2 .6 0 1-1 1-2.3C12 17.6 19 11 24.5 11c.9 0 1.3-.5 1-1-.8-1.2-2.2-1.2-5.5.1zm1.3 5.4C18.4 16.7 15 21.3 15 24c0 2 1.5.9 3-2.3.9-1.8 2.9-3.9 4.9-4.8 4.2-2 2.8-3.2-1.6-1.4zm-.6 5.2c-1.2 1.1-.7 3.3.8 3.9 2 .8 4.5-1.3 3.8-3.2-.5-1.4-3.4-1.9-4.6-.7z"/>
</svg>
