<svg xmlns="http://www.w3.org/2000/svg" width="40" height="40" viewBox="0 0 30 30" preserveAspectRatio="xMidYMid meet">
    <path d="M3.6 5.4C1 10.9 2.2 18.6 5.8 19.8c1.1.3 1-.3-.2-2.6-2-3.9-2-9.1-.1-11.9.8-1.2 1.1-2.4.6-2.7s-1.6.9-2.5 2.8zm20.1-2.8c-.3.4 0 1.6.8 2.8 2 2.7 1.9 9.6-.1 12.4-.8 1.2-1.1 2.2-.5 2.2 3.7 0 5.3-9.7 2.6-15-1.7-3.2-1.8-3.3-2.8-2.4zM8 7.9c-1.3 2.4-1.3 3.3 0 6.6.5 1.4 1.5 2.3 2 2 .8-.5.7-1.1-.1-2.1-.7-.8-.9-2.7-.5-4.9.8-3.9.2-4.5-1.4-1.6zm12.4 3.6c0 4.8.2 5.4 1.3 3.9.7-1 1.3-2.7 1.3-3.9s-.6-2.9-1.3-3.9c-1.1-1.5-1.3-.9-1.3 3.9zm-6.4 7c0 5.7.4 9.5 1 9.5s1-3.8 1-9.5S15.6 9 15 9s-1 3.8-1 9.5z"/>
</svg>
