<svg xmlns="http://www.w3.org/2000/svg" width="40" height="40" viewBox="0 0 30 30" preserveAspectRatio="xMidYMid meet">
    <path d="M2.2 7.2c-3.8 3.8 1.7 10 5.7 6.4 1-.9 2.2-1.6 2.7-1.5 2.5.4 2.5-.4-.1-3.1-3-3.1-6.3-3.8-8.3-1.8zm5.6 3.1c.4 2-2.5 3.4-4 1.9s-.1-4.4 1.9-4c1 .2 1.9 1.1 2.1 2.1zm4.7-2.4c1.3 1.4 1.7 1.4 3 0 1.4-1.4 1.3-1.6-1.5-1.6s-2.9.2-1.5 1.6zm3.2 3.9C9.6 17.9 8.6 21.2 12 23c3.5 1.9 7.8-1.8 6.4-5.5-.9-2.2-2.6-1.8-1.9.4.6 2-1.8 4.6-3.5 3.6-2.1-1.3-.9-4.2 3.8-8.8 5.2-5.2 8.5-6.2 8-2.5-.2 1.7-.9 2.3-2.5 2.2-2.6-.1-3.1 1.4-.9 2.2 3.9 1.5 7.4-4.4 4.4-7.4C23.6 5 21.5 6 15.7 11.8z"/>
</svg>
