<svg xmlns="http://www.w3.org/2000/svg" width="40" height="40" viewBox="0 0 30 30" preserveAspectRatio="xMidYMid meet">
    <path d="M1 9.5c0 4.2.3 5.5 1.5 5.5C3.6 15 4 16.2 4 19.9c0 2.8.5 5.3 1 5.6.6.4 1-.7 1-2.4 0-3 .1-3.1 4.5-3.1 3.8 0 4.5.3 4.5 2 0 1.5-.7 2-2.5 2-1.4 0-2.5.4-2.5 1s2.7 1 6 1 6-.4 6-1-1.1-1-2.5-1c-1.8 0-2.5-.5-2.5-2 0-1.8.7-2 6-2h6v-8-8H15 1v5.5zM8 7c0 .5-1.1 1-2.5 1S3 7.5 3 7c0-.6 1.1-1 2.5-1S8 6.4 8 7zm19 5v6H16.5C7.8 18 6 17.7 6 16.5c0-.8.9-1.5 2-1.5 1.7 0 2-.7 2-4.5V6h8.5H27v6zm-21-.9c0-.6.5-1.1 1-1.1.6 0 1 .7 1 1.5 0 .9-.9 1.5-2.5 1.5S3 12.4 3 11.4c0-1.4.3-1.4 1.5-.4 1 .9 1.5.9 1.5.1z"/>
</svg>
