<svg xmlns="http://www.w3.org/2000/svg" width="40" height="40" viewBox="0 0 30 30" preserveAspectRatio="xMidYMid meet">
    <path d="M10.6 5C6.4 6.3 4 8.9 4 12.2c0 2.5.4 2.8 3 2.8 1.8 0 3.3-.6 3.6-1.5.8-2 8-2 8.8 0 .6 1.7 6.1 2.1 7.1.4 1.1-1.7-1.4-6.5-4-7.7C18.9 4.5 13.8 4 10.6 5zm12 3.5c2.9 1.9 3.1 4.5.4 4.5-1.1 0-2-.7-2-1.5 0-1.2-1.3-1.5-6-1.5s-6 .3-6 1.5c0 .8-.7 1.5-1.6 1.5-1 0-1.4-.7-1.2-2.3.6-4.4 10.9-5.8 16.4-2.2zM9 19c0 .5.5 1 1.1 1 .5 0 .7-.5.4-1-.3-.6-.8-1-1.1-1-.2 0-.4.4-.4 1zm5.5 0c-.3.5-.1 1 .4 1 .6 0 1.1-.5 1.1-1 0-.6-.2-1-.4-1-.3 0-.8.4-1.1 1zm5 0c-.3.5-.1 1 .4 1 .6 0 1.1-.5 1.1-1 0-.6-.2-1-.4-1-.3 0-.8.4-1.1 1zM9 25.1c0 .5.5.7 1 .4.6-.3 1-.8 1-1.1 0-.2-.4-.4-1-.4-.5 0-1 .5-1 1.1zm5.5-.1c.3.5.8 1 1.1 1 .2 0 .4-.5.4-1 0-.6-.5-1-1.1-1-.5 0-.7.4-.4 1zm5 0c.3.5.8 1 1.1 1 .2 0 .4-.5.4-1 0-.6-.5-1-1.1-1-.5 0-.7.4-.4 1z"/>
</svg>
