<svg xmlns="http://www.w3.org/2000/svg" width="40" height="40" viewBox="0 0 30 30" preserveAspectRatio="xMidYMid meet">
    <path d="M8 1.4c0 .2.7 2.3 1.5 4.6l1.5 4.6c0 .2-2.3 0-5-.3L.9 9.7l1 2.7a6.7 6.7 0 0 1 0 5.2l-1 2.7 5.1-.6c2.7-.3 5-.5 5-.3s-.7 2.3-1.5 4.6c-1.9 5.4-2 5 1.5 5 2.6 0 3.3-.7 5.5-5 2.2-4.4 2.9-5 5.6-5 4.1 0 6.9-1.6 6.9-4s-2.8-4-6.9-4c-2.7 0-3.4-.6-5.6-5-2.2-4.3-2.9-5-5.5-5-1.7 0-3 .2-3 .4zm7.5 6.5c2.3 4.7 2.7 5 6.7 5.3 3 .2 4.3.7 4.3 1.8s-1.3 1.6-4.3 1.8c-4 .3-4.4.6-6.7 5.3-1.4 2.7-3 4.9-3.5 4.9-1.3 0-1.3-1 .5-6l1.5-4.3-5 .5c-4.9.5-5 .4-5-2.2s.1-2.7 5-2.2l5 .5L12.5 9c-1.8-5-1.8-6-.5-6 .5 0 2.1 2.2 3.5 4.9z"/>
</svg>
