<svg xmlns="http://www.w3.org/2000/svg" width="40" height="40" viewBox="0 0 30 30" preserveAspectRatio="xMidYMid meet">
    <path d="M8.2 3C1.5 7.1-.9 15.4 3 21.7c2.2 3.7 6.3 6.7 8.2 6.1.7-.3-.1-1.2-1.9-2.2C1.2 21.4 1 8.6 9 4.5 17.4.2 27 5.8 27 15c0 3.9-2.4 8.6-5 10-1.7.9-2 .8-2-1 0-1.1-.4-2-1-2-.5 0-1 1.6-1 3.5 0 3.5.1 3.5 4.3 3.5 3.7-.1 4-.2 2.4-1.4s-1.6-1.5-.1-2.6c.8-.8 2.2-2.6 3-4.1C33.6 9.3 19.4-3.8 8.2 3z"/>
    <path d="M11.6 9.7c-.8.8-.8 9.8 0 10.6.6.6 9.4-4.4 9.4-5.3s-8.8-5.9-9.4-5.3zM18 15c0 .4-1.1 1.2-2.5 1.8-2.4 1.1-2.5 1-2.5-1.8s.1-2.9 2.5-1.8c1.4.6 2.5 1.4 2.5 1.8z"/>
</svg>
