<svg xmlns="http://www.w3.org/2000/svg" width="40" height="40" viewBox="0 0 30 30" preserveAspectRatio="xMidYMid meet">
    <path d="M9 4.3c0 1.8-.5 3.8-1 4.3-.7.7-1 4.9-.8 10.5l.3 9.4H15h7.5l.3-9.4c.2-5.6-.1-9.8-.8-10.5-.5-.5-1-2.5-1-4.3V1h-6-6v3.3zm10 1.2c0 2.2-.4 2.5-4 2.5s-4-.3-4-2.5c0-2.3.4-2.5 4-2.5s4 .2 4 2.5zm2 13V27h-6-6v-8.5V10h6 6v8.5zM12.5 5c-.3.5-.1 1 .4 1 .6 0 1.1-.5 1.1-1 0-.6-.2-1-.4-1-.3 0-.8.4-1.1 1zM16 5c0 .5.5 1 1.1 1 .5 0 .7-.5.4-1-.3-.6-.8-1-1.1-1-.2 0-.4.4-.4 1z"/>
</svg>
