<svg xmlns="http://www.w3.org/2000/svg" width="40" height="40" viewBox="0 0 30 30" preserveAspectRatio="xMidYMid meet">
    <path d="M7.3 3.2C5.6 5.4 5.1 9 6.2 12.1c.5 1.6 1.4 2.9 1.9 2.9 1.2 0 1.1-.4-.2-3.4C7 9.7 7 8.4 8 6c1.4-3.3.9-4.9-.7-2.8zM22 4.9c1.3 2.6 1.3 6.4-.2 7.9-1.3 1.3-.5 2.7 1.1 1.8C25.5 12.9 24.8 3 22 3c-.7 0-.8.6 0 1.9zM9.4 6.5c-.7 1.8.4 7 1.3 6.2.3-.4.7-2.2.8-4.2.2-3.5-1.1-4.8-2.1-2zM19 9c0 2.5.4 3.9 1 3.5.6-.3 1-1.9 1-3.5s-.4-3.2-1-3.5c-.6-.4-1 1-1 3.5zm-5.7-1.8c-.4.7-.6 2.2-.5 3.3.2 1.1-.8 5.3-2.2 9.3-1.4 3.9-2 7.2-1.5 7.2s1.2-.7 1.5-1.5c.9-2.2 8-2 9.3.2 2.2 3.9 1.9.2-.4-6.8-1.4-4-2.3-8-2-8.8.6-1.4-1.1-4.1-2.6-4.1-.4 0-1.1.6-1.6 1.2zM16 9c0 .5-.2 1-.4 1-.3 0-.8-.5-1.1-1-.3-.6-.1-1 .4-1 .6 0 1.1.4 1.1 1zm-.4 7.7c-1.1 1.1-1.9-.6-1.1-2.4.8-1.7.8-1.7 1.2 0 .3 1 .2 2.1-.1 2.4zm2.4 3.8c0 1-1 1.5-3 1.5-2.9 0-3.8-.9-2.3-2.3 1.3-1.3 5.3-.7 5.3.8z"/>
</svg>
