<svg xmlns="http://www.w3.org/2000/svg" width="40" height="40" viewBox="0 0 30 30" preserveAspectRatio="xMidYMid meet">
    <path d="M1 3.5C1 6 1 6 10.5 6S20 6 20 3.5c0-1.4-.4-2.5-1-2.5-.5 0-1 .7-1 1.5C18 3.7 16.5 4 10.5 4S3 3.7 3 2.5C3 1.7 2.6 1 2 1c-.5 0-1 1.1-1 2.5zm24 0c0 1.4.5 2.5 1 2.5.6 0 1-1.1 1-2.5S26.6 1 26 1c-.5 0-1 1.1-1 2.5zM1 14v6h9.5H20v-6-6h-9.5H1v6zm17 0v4h-7.5H3v-4-4h7.5H18v4zm6.4-4.5c-.4.9-.2 2.1.4 2.7 1.5 1.5 4.4.1 4-1.9-.4-2.3-3.6-2.9-4.4-.8z"/>
    <path d="M25 21c0 3.3.4 6 1 6s1-2.7 1-6-.4-6-1-6-1 2.7-1 6zM1 24.5c0 1.4.5 2.5 1 2.5.6 0 1-.7 1-1.5 0-1.2 1.5-1.5 7.5-1.5s7.5.3 7.5 1.5c0 .8.5 1.5 1 1.5.6 0 1-1.1 1-2.5 0-2.5 0-2.5-9.5-2.5S1 22 1 24.5z"/>
</svg>
