<svg xmlns="http://www.w3.org/2000/svg" width="40" height="40" viewBox="0 0 30 30" preserveAspectRatio="xMidYMid meet">
    <path d="M4.7 4.6C4.3 5 4 7.9 4 11c0 3.9-.5 6.2-1.5 7-3 2.5-1.7 4 3.3 4 3.7 0 5 .5 6 2 1.1 1.9 2.1 2.1 9 1.8l7.7-.3v-7c0-6.4-.2-7-2.2-7.3-1.6-.2-2.3-1.1-2.5-3.5l-.3-3.2-9-.3c-5-.1-9.4 0-9.8.4zM22 8.5c0 2.3-.4 2.5-4.5 2.5-3.4 0-4.8.5-5.7 2-.7 1.1-2.3 2-3.5 2-2.1 0-2.3-.5-2.3-4.5V6h8c7.9 0 8 0 8 2.5zm5 10V24h-7-7v-5.5V13h7 7v5.5zm-16 0c0 1.1-1.1 1.5-4.1 1.5-3.6 0-4-.2-2.9-1.5.7-.8 2.5-1.5 4.1-1.5 1.9 0 2.9.5 2.9 1.5zm7.5 2.5c-.3.5.3 1 1.4 1 1.2 0 2.1-.5 2.1-1 0-.6-.6-1-1.4-1s-1.8.4-2.1 1z"/>
</svg>
