<svg xmlns="http://www.w3.org/2000/svg" width="40" height="40" viewBox="0 0 30 30" preserveAspectRatio="xMidYMid meet">
    <path d="M24.7 2.6c-.3.4 0 1.6.8 2.8 2 2.7 1.9 7.9-.1 11.8-1.2 2.3-1.3 2.9-.2 2.6 2.3-.8 3.9-5.1 3.5-9.4-.4-4.2-2.9-8.9-4-7.8zm-16 3.1c-.9.2-2.4 1.8-3.3 3.4-1.3 2.7-1.3 3.3.1 6.1 1.4 2.9 1.4 3.3 0 4C3.9 20.1 1 25.1 1 27a1.08 1.08 0 0 0 1 1c.6 0 1-.6 1-1.4s1.1-2.7 2.4-4.2c3.3-3.9 8.9-3.9 12.2 0 1.3 1.5 2.4 3.4 2.4 4.2s.5 1.4 1 1.4c.6 0 1-.5 1-1 0-1.9-2.9-6.9-4.5-7.8-1.4-.7-1.4-1.1 0-4 1.4-2.8 1.4-3.4.1-6C16.3 6.7 13 4.7 11 5.1c-.3.1-1.3.3-2.3.6zm6.9 3.8c2.6 3.9.6 7.5-4.1 7.5-2.8 0-3.8-.5-4.7-2.5C5.3 11.3 8 7 11.5 7c1.5 0 3.1 1 4.1 2.5zm6-.2c.4 2.3.2 4.3-.5 5.1-.8 1-.9 1.6-.1 2.1.5.3 1.5-.6 2-2 1.4-3.6 1.3-4.8-.5-7.1-1.4-1.8-1.5-1.6-.9 1.9z"/>
</svg>
