<svg xmlns="http://www.w3.org/2000/svg" width="40" height="40" viewBox="0 0 30 30" preserveAspectRatio="xMidYMid meet">
    <path d="M8.4 2.9C6.6 4 4.9 5.4 4.5 6c-.5.8-1.1.6-2.1-.7C1.2 3.7 1.1 3.9 1 7.7 1 11.9 1 12 4.5 12c1.9 0 3.5-.5 3.5-1 0-.6-.9-1-2-1-1.8 0-1.9-.3-1-2 1.4-2.6 6.1-5 10-5 9.2 0 14.8 9.6 10.5 18-4.1 8-16.9 7.8-21.1-.3-1-1.8-1.9-2.6-2.2-1.9-.6 1.9 2.4 6 6.1 8.2C19.9 34.1 34.1 19.9 27 8.2 22.9 1.5 14.6-.9 8.4 2.9zm4.6 8.9c0 2.9.7 4.5 3 6.7 1.6 1.6 3.2 2.6 3.5 2.3.3-.2-.6-1.5-2-2.8-1.8-1.7-2.5-3.4-2.5-6.2 0-2.1-.4-3.8-1-3.8-.5 0-1 1.7-1 3.8z"/>
</svg>
