<svg xmlns="http://www.w3.org/2000/svg" width="40" height="40" viewBox="0 0 30 30" preserveAspectRatio="xMidYMid meet">
    <path d="M4.5 9c-1.3 1.4-1.6 2.8-1.1 5.3s.2 3.8-.9 4.7c-1.6 1.3-2.1 4-.7 4 .4 0 1.2-1 1.7-2.2 1.4-3.3 7.6-3.3 9-.1.5 1.3 1.3 2.3 1.7 2.3 1.4 0 .9-2.7-.7-4-1.1-.9-1.4-2.2-.9-4.7C13.3 10.6 11.1 7 8 7c-.9 0-2.5.9-3.5 2zm6 3.5c0 2.5-.4 3-2.5 3-1.6 0-2.6-.6-2.8-1.8-.6-3 .6-4.9 3-4.5 1.8.2 2.3.9 2.3 3.3zM17 8c0 .6 2.7 1 6 1s6-.4 6-1-2.7-1-6-1-6 .4-6 1zm0 7c0 .6 2.7 1 6 1s6-.4 6-1-2.7-1-6-1-6 .4-6 1zm0 7c0 .6 2.7 1 6 1s6-.4 6-1-2.7-1-6-1-6 .4-6 1z"/>
</svg>
