<svg xmlns="http://www.w3.org/2000/svg" width="40" height="40" viewBox="0 0 30 30" preserveAspectRatio="xMidYMid meet">
    <path d="M3 15v12h12 12V15 3H15 3v12zm22-4c0 4.5-.4 6-1.4 6-.8 0-1.7-1.1-2-2.5-.4-1.4-1.3-2.5-2.1-2.5-.9 0-1.8-1.3-2.1-3-1.2-5.6-2.2-3.9-5 7.3-.4 2-1 2.5-1.8 1.8-.7-.6-2.2-.8-3.4-.4-2.1.5-2.2.2-2.2-6.1V5h10 10v6zm-4.8 5.5c.2 1.2 1.2 2.1 2.6 2.3 1.7.3 2.2 1 2.2 3.3V25H15c-9.9 0-10 0-10-2.4 0-3 2.8-3.9 5.3-1.7 2.2 1.9 3.3.6 4.2-5 .6-3.4.8-3.6 3-2.5 1.3.6 2.6 2 2.7 3.1z"/>
</svg>
