<svg xmlns="http://www.w3.org/2000/svg" width="40" height="40" viewBox="0 0 30 30" preserveAspectRatio="xMidYMid meet">
    <path d="M8 3.5C8 4.9 8.5 6 9 6c.6 0 1-.7 1-1.5C10 3.3 11.6 3 18.5 3H27v4.7c-.1 3.9-.5 5.1-2.5 6.6-2.2 1.5-2.5 1.6-2.5.2 0-1.7-2.5-2.1-3.5-.5-.3.5-.1 1 .4 1 .6 0 1.1 1.2 1.1 2.7v2.7l2.8-2.7c1.5-1.5 3.6-2.7 4.5-2.7 1.4 0 1.7-1.1 1.7-7V1H18.5 8v2.5zM6.8 9.7C4.2 12.8 4 13.8 5 16.5c.9 2.3.6 3.1-1.5 5.7C1 25.2.1 29 2 29c.6 0 1-.9 1-1.9s.8-2.9 1.9-4.2C8.6 18.3 18 21 18 26.7c0 1.2.5 2.3 1 2.3 1.9 0 1-4.7-1.5-7.4-2-2.1-2.3-3.1-1.5-4.6 1.5-2.8 1.2-4.8-1-7-2.5-2.5-6.2-2.6-8.2-.3zm7.6 2.5c2.4 3.9-4.4 7.9-7.4 4.3-2.1-2.5.3-6.7 3.7-6.3 1.4.2 3.1 1.1 3.7 2z"/>
</svg>
