<svg xmlns="http://www.w3.org/2000/svg" width="40" height="40" viewBox="0 0 30 30" preserveAspectRatio="xMidYMid meet">
    <path d="M1 9.5V17h4.9c2.8 0 5.3-.5 5.6-1 .4-.6-1.2-1-3.9-1H3V9.5 4h10.5C23.3 4 24 4.1 24 6c0 1.1.5 2 1.1 2s.9-1.2.7-2.8l-.3-2.7-12.2-.3L1 1.9v7.6zm18 .5c-.8.5-2.5 1-3.7 1-2 0-2.3.5-2.3 3.5 0 4.5 2.1 8.7 5.6 11 2.5 1.6 2.8 1.6 5.3-.2 3.4-2.6 5.1-6 5.1-10.4 0-3.2-.4-3.7-2.7-4.2-1.6-.3-3.5-.8-4.3-1.1s-2.2-.1-3 .4zm4.9 2.1c4.4 1.5 4.4 6.3 0 10.5l-3 2.9-3-3.3c-3.8-4.3-3.9-8.4-.1-9.9 1.5-.6 2.7-1.1 2.8-1.2s1.5.4 3.3 1z"/>
</svg>
