<svg xmlns="http://www.w3.org/2000/svg" width="40" height="40" viewBox="0 0 30 30" preserveAspectRatio="xMidYMid meet">
    <path d="M1.2 11.2l.3 9.3 5.8.3c5.1.3 5.8.6 7.2 3.1C18.4 31.5 29 28 29 19.1c0-2.2-.4-4.3-1-4.6-.5-.3-1-3.3-1-6.6V2H14 .9l.3 9.2zM25 9c0 3.7-.4 5-1.4 5-.9 0-1.6-1.2-1.8-3.3-.2-2.4-.8-3.2-2.3-3.2s-2.1.8-2.3 3c-.2 1.6-1.2 3.5-2.3 4.3-1 .7-1.9 2-1.9 2.8 0 1-1.3 1.4-5 1.4H3v-7.5V4h11 11v5zm-1.4 7c3.2 0 3.4.2 3.4 3.2 0 6.2-7.1 9.4-10.4 4.6-1.8-2.5-2.2-7.8-.6-7.8.6 0 1 1.2 1 2.6 0 5.1 2 1.1 2.2-4.4.1-4.3.2-4.8.5-2 .4 3.6.6 3.8 3.9 3.8z"/>
</svg>
