<svg xmlns="http://www.w3.org/2000/svg" width="40" height="40" viewBox="0 0 30 30" preserveAspectRatio="xMidYMid meet">
    <path d="M3.5 2c-.3.5-.6 4.1-.7 8 0 3.9-.4 7.3-.9 7.6-1.9 1.1-.8 4.7 2.4 7.9S8 28.8 15 28.8s7.5-.1 10.7-3.3c3.5-3.5 4.1-6.3 2.1-8.3-.8-.8-.9-1.5-.3-2 1.2-.9 1.5-7.2.4-7.2-.5 0-.9-1.4-.9-3 0-4.2-2.5-4.9-5.9-1.6C17.5 6.9 12.2 7 9 3.5 6.5.9 4.5.3 3.5 2zM9 5.5C10.7 7.3 12.4 8 15 8s4.3-.7 6-2.5c3.2-3.4 4-3.2 4 1V10H15 5V6.5c0-4.2.8-4.4 4-1zm-.7 8.9c-.6 2.9 1 4.1 2.7 2.1 1-1.2 1-1.8 0-3-1.1-1.3-.5-1.5 4-1.5s5.1.2 4 1.5c-1 1.2-1 1.8 0 3 1.7 2 3.3.8 2.7-2.1-.3-1.8 0-2.4 1.4-2.4 1.2 0 1.9.7 1.9 2 0 1.1.5 2.9 1.2 3.9.9 1.5.9 2.6-.1 4.8l-1.3 2.8-1.3-3.2c-1.5-3.6-5.9-5-12.1-3.9-2.7.6-3.8 1.4-4.9 3.9l-1.3 3.2-1.3-2.8c-1-2.2-1-3.3-.1-4.8.7-1 1.2-2.8 1.2-3.9 0-1.3.7-2 1.9-2 1.4 0 1.7.6 1.4 2.4zm5.4 6.7c.8.8 1.7.7 3.2-.2 1.7-1.2 2.3-1.1 3.7.3 1 1 1.4 2.3 1 3.6-.6 1.7-1.5 2-6.6 2-5 0-6-.3-6.5-1.9-1.1-3.5 2.7-6.3 5.2-3.8z"/>
</svg>
