<svg xmlns="http://www.w3.org/2000/svg" width="100" height="100" viewBox="0 0 75 75" preserveAspectRatio="xMidYMid meet">
    <path d="M32.7 12.4C25.5 15 22 20 22 27.5c0 5.3 1 7.7 5.3 12.2 2.5 2.6 2.7 3.3 1.3 3.3-2.8 0-11.3 9.3-12.5 13.6-1.5 5.3-1.4 7.4.4 7.4.9 0 1.5-.9 1.5-2.4 0-6 4.5-12.2 11.2-15.7 6.7-3.4 16.9-1.9 22.7 3.4 2.8 2.6 6 9.2 6.1 12.4 0 1.4.6 2.3 1.5 2.3 1.9 0 1.1-4.7-1.7-10.8-1.8-3.8-7.4-9.1-11.1-10.5-.7-.3-.3-1.2 1.2-2.2 2.8-2.1 6-8.9 6.1-12.9 0-1.6-.9-4.9-2.1-7.2-3.5-7.3-11.8-10.7-19.2-8zm10.8 3c6.8 2.9 9.6 12.6 5.5 19.3-5.3 8.7-17.8 8.3-23-.8-3.6-6.5-1.5-13.8 5.3-17.9 3.8-2.4 7.5-2.5 12.2-.6z"/>
</svg>
