<svg xmlns="http://www.w3.org/2000/svg" width="100" height="100" viewBox="0 0 75 75" preserveAspectRatio="xMidYMid meet">
    <path d="M45 24.5c-5.2 5.3-10.6 10.1-12 10.8s-2.9 2.6-3.5 4.2c-1.6 4.8-2.4 5.5-6.6 5.5-2.1 0-3.9.4-3.9 1s4 1 10 1c9.8 0 10 0 11.6-2.7 1-1.6 5.9-7.1 10.9-12.3 5.1-5.2 9.5-10.2 9.8-11.1.8-2.4-2-5.9-4.6-5.9-1.5 0-5.4 3.2-11.7 9.5zm14-5.2c0 .7-2.8 4.1-6.3 7.5-5.7 5.6-6.5 6.1-7.7 4.7s-.6-2.4 4.6-7.6c5.5-5.6 9.4-7.5 9.4-4.6zM43.2 36.2c-1.7 1.7-4.7-.9-3-2.9 1-1.2 1.3-1.2 2.7.1 1.1 1.2 1.2 1.9.3 2.8zM39 40.8c0 2.6-2 4.2-5.2 4.2-2.6 0-2.8-.2-2.2-2.8.9-3.7 3.1-5.4 5.5-4.1 1.1.5 1.9 1.8 1.9 2.7zm-26-1.3V54h11.5c10.8 0 11.5.1 11.5 2 0 1.6-.7 2-3.5 2-2.4 0-3.5.5-3.5 1.5 0 1.2 1.6 1.5 8 1.5s8-.3 8-1.5c0-1.1-1.1-1.5-3.6-1.5-2.8 0-3.5-.3-3.2-1.8s1.8-1.7 12.1-2l11.7-.3V41.3c0-11-.2-12.4-1.5-11.3-1.1 1-1.5 3.6-1.5 11.1V51H37 15V39.5 28h9.9c7.5 0 10.1-.4 11.1-1.5 1.1-1.3-.2-1.5-10.9-1.5H13v14.5z"/>
</svg>
