<svg xmlns="http://www.w3.org/2000/svg"
    xmlns:xlink="http://www.w3.org/1999/xlink" width="100" height="100" viewBox="0 0 75 75" preserveAspectRatio="xMidYMid meet">
    <path d="M12.2 11.8c-.9.7-1.2 4.2-1 14.3l.3 13.4 10.8.3c6.9.2 10.7-.1 10.7-.8 0-.6-3.8-1-10-1H13V26 14h22 22v3.5c0 2.4.5 3.5 1.5 3.5s1.5-1 1.5-3.4c0-6.4-.7-6.6-24.8-6.6-11.9 0-22.3.4-23 .8z"/>
    <use href="#B"/>
    <path d="M24 19.5c0 .8.5 1.5 1 1.5.6 0 1-.7 1-1.5s-.4-1.5-1-1.5c-.5 0-1 .7-1 1.5z"/>
    <use href="#B" x="13"/>
    <use href="#B" x="20"/>
    <path d="M44 19.5c0 .8.5 1.5 1 1.5.6 0 1-.7 1-1.5s-.4-1.5-1-1.5c-.5 0-1 .7-1 1.5z"/>
    <use href="#B" x="33"/>
    <path d="M17 26c0 .5 1.4 1 3 1 1.7 0 3-.5 3-1 0-.6-1.3-1-3-1-1.6 0-3 .4-3 1zm10 0c0 .5.7 1 1.5 1s1.5-.5 1.5-1c0-.6-.7-1-1.5-1s-1.5.4-1.5 1zm10 18.5V64h13 13V44.5 25H50 37v19.5zm23-.5v17H50 40V44 27h10 10v17zM44.1 32.6c-2.7 3.4-2.7 6.4 0 9.8 2.9 3.7 8.9 3.7 11.8 0 2.7-3.4 2.7-6.4 0-9.8-1.6-2-2.9-2.6-5.9-2.6s-4.3.6-5.9 2.6zm9.1 1.1c2.2 2 2.3 5.1.1 7.5-2 2.2-4.1 2.3-6.5.1-2.2-2-2.3-5.1-.1-7.5 2-2.2 4.1-2.3 6.5-.1zm-4.7 3.2c-.7 1.2 1.2 2.4 2.5 1.6 1.1-.7.4-2.5-1-2.5-.5 0-1.1.4-1.5.9zM47 51c-1.1 1.1-2 2.4-2 3 0 1.3 3.7 5 5 5s5-3.7 5-5-3.7-5-5-5c-.5 0-1.9.9-3 2zm4.6 2.1c1 1.7-1.3 3.6-2.7 2.2-1.2-1.2-.4-3.3 1.1-3.3.5 0 1.2.5 1.6 1.1zM17 32.5c0 1 1 1.5 3 1.5s3-.5 3-1.5-1-1.5-3-1.5-3 .5-3 1.5zm10 0c0 1 1 1.5 3 1.5s3-.5 3-1.5-1-1.5-3-1.5-3 .5-3 1.5z"/>
    <defs >
        <path id="B" d="M17 19.5a1.54 1.54 0 0 0 1.5 1.5 1.54 1.54 0 0 0 1.5-1.5 1.54 1.54 0 0 0-1.5-1.5 1.54 1.54 0 0 0-1.5 1.5z"/>
    </defs>
</svg>
