<svg version="1.0" viewBox="0 0 100 100" xmlns="http://www.w3.org/2000/svg"><path d="M38.5 13.8c-.8 5.8-1 6.2-5.7 8.9-3.7 2.2-3.8 2.2-9 .4l-5.3-1.8-8.4 14.2 3.9 3.8c3.6 3.4 4 4.3 4 8.7s-.4 5.3-4 8.7l-3.9 3.8 8.4 14.2 5.3-1.8c5.2-1.8 5.3-1.8 9 .4 4.7 2.7 4.9 3.1 5.7 8.9l.7 4.8h17.6l.7-4.8c.8-5.8 1-6.2 5.7-8.9 3.7-2.2 3.8-2.2 9-.4l5.3 1.8 8.4-14.2-3.9-3.8c-3.6-3.4-4-4.3-4-8.7s.4-5.3 4-8.7l3.9-3.8-8.4-14.2-5.3 1.8c-5.2 1.8-5.3 1.8-9-.4-4.7-2.7-4.9-3.1-5.7-8.9L56.8 9H39.2l-.7 4.8zm13.9 5.7c.7 4.1 1.2 4.7 4.9 6.6 2.3 1.2 5 2.8 5.9 3.6 1.7 1.5 3.5 1.4 9.5-.3 1.6-.4 2.6.1 3.9 2.1 1.7 2.6 1.6 2.6-1.6 6-3.1 3.2-3.3 3.8-3.3 10.5s.2 7.3 3.3 10.5c3.2 3.4 3.3 3.4 1.6 6-1.3 2-2.3 2.5-3.9 2.1-6-1.7-7.8-1.8-9.5-.3-.9.8-3.6 2.4-5.9 3.6-3.7 1.9-4.2 2.5-4.9 6.6-.6 4.4-.7 4.5-4.4 4.5s-3.8-.1-4.4-4.5c-.7-4.1-1.2-4.7-4.9-6.6-2.3-1.2-5-2.8-5.9-3.6-1.7-1.5-3.5-1.4-9.5.3-1.6.4-2.6-.1-3.9-2.1-1.7-2.6-1.6-2.6 1.6-6 3.1-3.2 3.3-3.8 3.3-10.5s-.2-7.3-3.3-10.5c-3.2-3.4-3.3-3.4-1.6-6 1.3-2 2.3-2.5 3.9-2.1 6 1.7 7.8 1.8 9.5.3.9-.8 3.6-2.4 5.9-3.6 3.7-1.9 4.2-2.5 4.9-6.6.6-4.4.7-4.5 4.4-4.5s3.8.1 4.4 4.5z"/><path d="M40.6 35.4c-7.1 4.3-9.4 12.2-5.7 19.4 2.2 4.3 8.4 8.2 13 8.2C55.4 63 63 55.5 63 48c0-4.7-3.9-10.9-8.2-13.1-5-2.5-9.5-2.4-14.2.5zm13.5 6.5c2 2 2.9 3.9 2.9 6.1 0 4.3-4.7 9-9 9s-9-4.7-9-9c0-2.2.9-4.1 2.9-6.1S45.8 39 48 39s4.1.9 6.1 2.9z"/></svg>
