<?xml version="1.0" encoding="UTF-8"?>
<svg enable-background="new 0 0 64 64" version="1.1" viewBox="0 0 64 64" xml:space="preserve"
  xmlns="http://www.w3.org/2000/svg">

  <path d="m53.979 9.1429h-3.9683c-0.082699 0-0.1562 0.0284-0.2331 0.047v-4.1671c0-2.7698-2.3046-5.0228-5.1379-5.0228h-34.423c-2.8333 0-5.1379 2.253-5.1379 5.0228v46.843c0 2.7698 2.3046 5.0228 5.1379 5.0228h6.0367v2.2679c0 2.6706 2.2163 4.8432 4.9415 4.8432h32.784c2.7252 0 4.9415-2.1726 4.9415-4.8432v-45.171c-1.8e-6 -2.6706-2.2163-4.8432-4.9415-4.8432zm-46.868 42.723v-46.843c0-1.6488 1.3939-2.991 3.1062-2.991h34.423c1.7123 0 3.1062 1.3422 3.1062 2.991v46.843c0 1.6488-1.3939 2.9911-3.1062 2.9911h-34.423c-1.7123 4e-7 -3.1062-1.3423-3.1062-2.9911zm49.778 7.2907c0 1.5506-1.3055 2.8115-2.9097 2.8115h-32.784c-1.6042 0-2.9098-1.2609-2.9098-2.8115v-2.2679h26.354c2.8333 0 5.1379-2.253 5.1379-5.0228v-40.739c0.0769 0.0186 0.1504 0.047 0.2331 0.047h3.9683c1.6042 0 2.9097 1.2609 2.9097 2.8115v45.171z"/>
  <path d="m38.603 13.206h-22.349c-0.5615 0-1.0159 0.4543-1.0159 1.0158 0 0.5616 0.4544 1.0159 1.0159 1.0159h22.349c0.5615 0 1.0159-0.4543 1.0159-1.0159 0-0.5615-0.4544-1.0158-1.0159-1.0158z"/>
  <path d="m38.603 21.333h-22.349c-0.5615 0-1.0159 0.4543-1.0159 1.0158 0 0.5615 0.4544 1.0159 1.0159 1.0159h22.349c0.5615 0 1.0159-0.4544 1.0159-1.0159 0-0.5615-0.4544-1.0158-1.0159-1.0158z"/>
  <path d="m38.603 29.46h-22.349c-0.5615 0-1.0159 0.4544-1.0159 1.0159s0.4544 1.0159 1.0159 1.0159h22.349c0.5615 0 1.0159-0.4544 1.0159-1.0159s-0.4544-1.0159-1.0159-1.0159z"/>
  <path d="m28.444 37.587h-12.19c-0.5615 0-1.0159 0.4544-1.0159 1.0159s0.4544 1.0159 1.0159 1.0159h12.19c0.5615 0 1.0158-0.4544 1.0158-1.0159s-0.4543-1.0159-1.0158-1.0159z"/>

</svg>
