<svg width="50pt" height="50pt" version="1.0" viewBox="0 0 50 50"
  xmlns="http://www.w3.org/2000/svg">
  <g transform="translate(0 50) scale(.1 -.1)">
    <path d="m204 430c-46-10-87-38-114-78-36-51-36-153 0-205 35-51 91-80 155-79 86 1 152 50 175 130 12 46 12 58 0 104-26 92-122 149-216 128zm103-21 28-11-48-14c-41-13-53-13-90 0-41 14-42 15-17 25 34 13 92 13 127 0zm-133-60 26-20-32-46c-17-26-39-67-49-92l-17-46-16 37c-22 50-20 93 5 145 23 49 43 54 83 22zm218-19c20-40 23-102 7-149-13-37-29-41-29-8 0 13-18 52-40 86s-40 65-40 70c0 15 44 40 65 38 12-1 27-17 37-37zm-101-87c81-86 87-114 29-143-46-23-97-26-143-7-50 22-61 40-43 74 19 37 92 113 109 113 7 0 29-17 48-37z"/>
  </g>
</svg>
