<svg width="50pt" height="50pt" version="1.0" viewBox="0 0 50 50"
  xmlns="http://www.w3.org/2000/svg">
  <g transform="translate(0 50) scale(.1 -.1)">
    <path d="m190 428c-46-13-96-52-115-88-17-33-18-40-7-40 4 0 15 15 25 33 54 100 208 113 283 24l27-32-31-3c-49-5-38-22 13-22h45v45c0 25-4 45-10 45-5 0-10-10-10-21 0-19-4-18-39 14-37 33-95 58-131 56-8 0-31-5-50-11z"/>
    <path d="m61 153c1-27 4-38 6-25 2 12 6 22 7 22 2 0 19-15 39-34 46-43 117-62 176-46 47 12 105 59 127 101 21 41 0 36-25-6-36-61-113-94-187-81-33 7-114 68-114 87 0 5 11 9 25 9s25 5 25 10c0 6-18 10-40 10h-40l1-47z"/>
  </g>
</svg>
