<?xml version="1.0" encoding="UTF-8"?>
<!DOCTYPE svg  PUBLIC '-//W3C//DTD SVG 20010904//EN'  'http://www.w3.org/TR/2001/REC-SVG-20010904/DTD/svg10.dtd'>
<svg width="50pt" height="50pt" version="1.0" viewBox="0 0 50 50"
  xmlns="http://www.w3.org/2000/svg">
  <g transform="translate(0 50) scale(.1 -.1)">
    <path d="m187 429c-25-15-47-63-47-103 0-25 9-45 29-68l28-32-30-20c-17-12-38-32-48-46-23-31-36-90-20-90 6 0 11 11 11 24 0 39 42 89 91 109 37 16 51 17 86 8 50-14 87-50 107-104 14-40 14-41 15-12 1 38-30 90-69 114-30 18-30 18-10 36 10 9 24 33 30 51 26 77-25 144-108 144-26 0-55-5-65-11zm112-13c69-36 66-137-4-171-42-19-53-19-91 4-44 27-61 79-40 120 30 58 80 75 135 47z"/>
  </g>
</svg>
