<?xml version="1.0" standalone="no"?>
<!DOCTYPE svg PUBLIC "-//W3C//DTD SVG 20010904//EN"
 "http://www.w3.org/TR/2001/REC-SVG-20010904/DTD/svg10.dtd">
<svg version="1.0" xmlns="http://www.w3.org/2000/svg"
 width="50.000000pt" height="50.000000pt" viewBox="0 0 50.000000 50.000000"
 preserveAspectRatio="xMidYMid meet">
<metadata>
Created by potrace 1.16, written by Peter Selinger 2001-2019
</metadata>
<g transform="translate(0.000000,50.000000) scale(0.100000,-0.100000)"
fill="#000000" stroke="none">
<path d="M187 429 c-25 -15 -47 -63 -47 -103 0 -25 9 -45 29 -68 l28 -32 -30
-20 c-17 -12 -38 -32 -48 -46 -23 -31 -36 -90 -20 -90 6 0 11 11 11 24 0 39
42 89 91 109 37 16 51 17 86 8 50 -14 87 -50 107 -104 14 -40 14 -41 15 -12 1
38 -30 90 -69 114 -30 18 -30 18 -10 36 10 9 24 33 30 51 26 77 -25 144 -108
144 -26 0 -55 -5 -65 -11z m112 -13 c69 -36 66 -137 -4 -171 -42 -19 -53 -19
-91 4 -44 27 -61 79 -40 120 30 58 80 75 135 47z"/>
</g>
</svg>
