<?xml version="1.0" encoding="UTF-8"?>
<!DOCTYPE svg  PUBLIC '-//W3C//DTD SVG 20010904//EN'  'http://www.w3.org/TR/2001/REC-SVG-20010904/DTD/svg10.dtd'>
<svg width="50pt" height="50pt" version="1.0" viewBox="0 0 50 50"
  xmlns="http://www.w3.org/2000/svg">
  <g transform="translate(0 50) scale(.1 -.1)">
    <path d="m60 390c0-27 3-30 30-30s30 3 30 30-3 30-30 30-30-3-30-30zm40 5c0-8-7-15-15-15-16 0-20 12-8 23 11 12 23 8 23-8z"/>
    <path d="m233 393c37-2 97-2 135 0 37 2 6 3-68 3s-105-1-67-3z"/>
    <path d="m60 300c0-27 3-30 30-30s30 3 30 30-3 30-30 30-30-3-30-30zm40-6c0-9-5-14-12-12-18 6-21 28-4 28 9 0 16-7 16-16z"/>
    <path d="m170 300c0-6 42-10 105-10s105 4 105 10-42 10-105 10-105-4-105-10z"/>
    <path d="m60 205c0-32 2-35 30-35s30 3 30 35-2 35-30 35-30-3-30-35zm40 0c0-8-7-15-15-15-16 0-20 12-8 23 11 12 23 8 23-8z"/>
    <path d="m207 203c24-2 62-2 85 0 24 2 5 4-42 4s-66-2-43-4z"/>
    <path d="m60 110c0-27 3-30 30-30s30 3 30 30-3 30-30 30-30-3-30-30zm40-6c0-9-5-14-12-12-18 6-21 28-4 28 9 0 16-7 16-16z"/>
    <path d="m170 110c0-6 42-10 105-10s105 4 105 10-42 10-105 10-105-4-105-10z"/>
  </g>
</svg>
