<?xml version="1.0" standalone="no"?>
<!DOCTYPE svg PUBLIC "-//W3C//DTD SVG 20010904//EN"
 "http://www.w3.org/TR/2001/REC-SVG-20010904/DTD/svg10.dtd">
<svg version="1.0" xmlns="http://www.w3.org/2000/svg"
 width="50.000000pt" height="50.000000pt" viewBox="0 0 50.000000 50.000000"
 preserveAspectRatio="xMidYMid meet">
<metadata>
Created by potrace 1.16, written by Peter Selinger 2001-2019
</metadata>
<g transform="translate(0.000000,50.000000) scale(0.100000,-0.100000)"
fill="#000000" stroke="none">
<path d="M100 302 c0 -76 -3 -91 -20 -107 -11 -10 -20 -29 -20 -42 l0 -23 180
0 c154 0 181 2 187 16 3 9 -5 26 -21 43 -24 25 -26 34 -26 114 l0 87 -140 0
-140 0 0 -88z m260 -7 l0 -75 -120 0 -120 0 0 75 0 75 120 0 120 0 0 -75z m32
-112 c10 -9 18 -20 18 -25 0 -4 -77 -8 -172 -8 l-171 0 23 25 c23 24 28 25
153 25 107 0 134 -3 149 -17z"/>
</g>
</svg>
