<?xml version="1.0" standalone="no"?>
<!DOCTYPE svg PUBLIC "-//W3C//DTD SVG 20010904//EN"
 "http://www.w3.org/TR/2001/REC-SVG-20010904/DTD/svg10.dtd">
<svg version="1.0" xmlns="http://www.w3.org/2000/svg"
 width="50.000000pt" height="50.000000pt" viewBox="0 0 50.000000 50.000000"
 preserveAspectRatio="xMidYMid meet">
<metadata>
Created by potrace 1.16, written by Peter Selinger 2001-2019
</metadata>
<g transform="translate(0.000000,50.000000) scale(0.100000,-0.100000)"
fill="#000000" stroke="none">
<path d="M278 325 c-47 -46 -89 -93 -93 -105 -5 -15 -15 -20 -41 -20 -19 0
-34 -4 -34 -10 0 -6 29 -10 66 -10 l65 0 82 86 c59 63 82 94 82 113 0 51 -35
36 -127 -54z m116 57 c3 -5 -17 -30 -43 -56 -33 -32 -51 -44 -56 -36 -4 7 10
29 36 56 44 45 54 50 63 36z m-104 -118 c0 -16 -16 -19 -25 -4 -8 13 4 32 16
25 5 -4 9 -13 9 -21z m-43 -25 c17 -17 4 -39 -23 -39 -25 0 -28 7 -18 34 7 19
25 21 41 5z"/>
<path d="M70 235 l0 -105 80 0 c64 0 80 -3 80 -15 0 -9 -9 -15 -25 -15 -14 0
-25 -4 -25 -10 0 -6 27 -10 60 -10 33 0 60 4 60 10 0 6 -11 10 -25 10 -16 0
-25 6 -25 15 0 12 16 15 85 15 l85 0 0 91 c0 57 -4 88 -10 84 -5 -3 -10 -40
-10 -81 l0 -74 -160 0 -160 0 0 85 0 85 74 0 c41 0 78 5 81 10 4 6 -25 10 -79
10 l-86 0 0 -105z"/>
</g>
</svg>
