<?xml version="1.0" encoding="UTF-8"?>
<!DOCTYPE svg  PUBLIC '-//W3C//DTD SVG 20010904//EN'  'http://www.w3.org/TR/2001/REC-SVG-20010904/DTD/svg10.dtd'>
<svg width="50pt" height="50pt" version="1.0" viewBox="0 0 50 50"
  xmlns="http://www.w3.org/2000/svg">
  <g transform="translate(0 50) scale(.1 -.1)">
    <path d="m278 325c-47-46-89-93-93-105-5-15-15-20-41-20-19 0-34-4-34-10s29-10 66-10h65l82 86c59 63 82 94 82 113 0 51-35 36-127-54zm116 57c3-5-17-30-43-56-33-32-51-44-56-36-4 7 10 29 36 56 44 45 54 50 63 36zm-104-118c0-16-16-19-25-4-8 13 4 32 16 25 5-4 9-13 9-21zm-43-25c17-17 4-39-23-39-25 0-28 7-18 34 7 19 25 21 41 5z"/>
    <path d="m70 235v-105h80c64 0 80-3 80-15 0-9-9-15-25-15-14 0-25-4-25-10s27-10 60-10 60 4 60 10-11 10-25 10c-16 0-25 6-25 15 0 12 16 15 85 15h85v91c0 57-4 88-10 84-5-3-10-40-10-81v-74h-160-160v85 85h74c41 0 78 5 81 10 4 6-25 10-79 10h-86v-105z"/>
  </g>
</svg>
