<?xml version="1.0" encoding="UTF-8"?>
<!DOCTYPE svg  PUBLIC '-//W3C//DTD SVG 20010904//EN'  'http://www.w3.org/TR/2001/REC-SVG-20010904/DTD/svg10.dtd'>
<svg width="50pt" height="50pt" version="1.0" viewBox="0 0 50 50"
  xmlns="http://www.w3.org/2000/svg">
  <g transform="translate(0 50) scale(.1 -.1)">
    <path d="m220 340c0-48-4-70-12-70s-6-6 5-17c16-16 18-16 34 0 11 11 13 17 5 17s-12 22-12 70c0 40-4 70-10 70s-10-30-10-70z"/>
    <path d="m143 374c-18-9-31-20-28-24 6-9 75 21 75 32 0 12-11 10-47-8z"/>
    <path d="m70 301c-7-17-10-36-7-43 2-7 12 4 21 26 19 45 19 46 7 46-5 0-14-13-21-29z"/>
    <path d="m390 282c0-7-15-12-39-12-22 0-43-4-46-10-4-6 12-10 39-10 30 0 46-4 46-12s6-6 17 5c16 16 16 18 0 34-11 11-17 13-17 5z"/>
    <path d="m65 193c7-30 21-50 30-41 6 5-23 68-32 68-3 0-2-12 2-27z"/>
    <path d="m327 185c-10-20-12-37-7-40 6-3 10-4 10-2 0 3 7 21 15 41 19 46 4 47-18 1z"/>
    <path d="m120 123c0-10 43-33 60-33s11 17-7 23c-10 2-26 8-35 12-10 4-18 3-18-2z"/>
    <path d="m253 117c-18-6-33-15-33-20 0-13 52 1 70 19 16 16 9 16-37 1z"/>
  </g>
</svg>
