<?xml version="1.0" standalone="no"?>
<!DOCTYPE svg PUBLIC "-//W3C//DTD SVG 20010904//EN"
 "http://www.w3.org/TR/2001/REC-SVG-20010904/DTD/svg10.dtd">
<svg version="1.0" xmlns="http://www.w3.org/2000/svg"
 width="50.000000pt" height="50.000000pt" viewBox="0 0 50.000000 50.000000"
 preserveAspectRatio="xMidYMid meet">
<metadata>
Created by potrace 1.16, written by Peter Selinger 2001-2019
</metadata>
<g transform="translate(0.000000,50.000000) scale(0.100000,-0.100000)"
fill="#000000" stroke="none">
<path d="M204 430 c-46 -10 -87 -38 -114 -78 -36 -51 -36 -153 0 -205 35 -51
91 -80 155 -79 86 1 152 50 175 130 12 46 12 58 0 104 -26 92 -122 149 -216
128z m103 -21 l28 -11 -48 -14 c-41 -13 -53 -13 -90 0 -41 14 -42 15 -17 25
34 13 92 13 127 0z m-133 -60 l26 -20 -32 -46 c-17 -26 -39 -67 -49 -92 l-17
-46 -16 37 c-22 50 -20 93 5 145 23 49 43 54 83 22z m218 -19 c20 -40 23 -102
7 -149 -13 -37 -29 -41 -29 -8 0 13 -18 52 -40 86 -22 34 -40 65 -40 70 0 15
44 40 65 38 12 -1 27 -17 37 -37z m-101 -87 c81 -86 87 -114 29 -143 -46 -23
-97 -26 -143 -7 -50 22 -61 40 -43 74 19 37 92 113 109 113 7 0 29 -17 48 -37z"/>
</g>
</svg>
