<svg xmlns="http://www.w3.org/2000/svg" width="100" height="100" viewBox="0 0 75 75" preserveAspectRatio="xMidYMid meet">
    <path d="M22.7 12.4C15.5 15 12 20 12 27.5c0 4.7 1 7.6 3.8 10.8 2.4 2.8 3.4-.1 1.1-3.2-4.5-6.1-2.8-14.3 4-18.8 8.7-5.8 20.1.5 20.1 11.2 0 2.4.4 3.5 1.5 3.5 2.2 0 1.9-6.2-.5-10.9-3.5-6.9-12.1-10.3-19.3-7.7zM25 24.5V31h4.5c5.5 0 6.5-2.7 1.3-3.2-3.2-.3-3.3-.5-3.6-5.1-.5-7.1-2.2-5.7-2.2 1.8zm22.4 8.2c.1 1.5-.9 1.9-5.6 2.1l-5.8.3v3.5c0 2.4.4 3.4 1.3 3.1.6-.2 1.2-1.4 1.1-2.6-.1-2 .3-2.1 10.8-2.1H60v2.5c0 1.6.6 2.5 1.5 2.5 1 0 1.5-1.1 1.5-3.5v-3.4l-6.2-.3c-5.3-.3-6.3-.6-6.2-2.1.1-1-.5-1.7-1.6-1.7s-1.7.7-1.6 1.7zM41 41.5c0 1.2 1.3 1.5 6.1 1.5 5.4 0 6 .2 4.9 1.5-.7.8-1.8 1.5-2.5 1.5s-1.5.7-1.9 1.5c-.4 1.1-2.1 1.5-6.6 1.5-3.3 0-6 .4-6 1s2.8 1 6.5 1H48v3.1c0 2.2-.5 3.2-2 3.6-3.2.9-2.3 2.5 1.3 2.1 3-.3 3.2-.6 3.5-4.6l.3-4.2h6c3.3 0 5.9-.4 5.9-1s-2.7-1-6-1-6-.3-6-.8c0-.4 1.6-1.8 3.5-3.1 2-1.3 3.4-2.9 3.2-3.5s-3.7-1.2-8.5-1.4c-6.8-.2-8.2 0-8.2 1.3zm-21.9 9.7l-3.8 11.6c-.3.6.1 1.2.9 1.2.9 0 1.9-1.5 2.4-3.3.9-3.1 1.2-3.2 5.9-3.2s5 .1 5.9 3.2c.5 1.8 1.5 3.3 2.4 3.3.8 0 1.2-.6.9-1.3l-3.8-11.5C27.1 42.6 26.2 41 24.5 41s-2.6 1.6-5.4 10.2zm6.8-4c2.5 6.8 2.5 6.8-1.4 6.8-3.3 0-3.6-.2-2.9-2.3 1.3-4.4 2.4-6.7 2.9-6.7.3 0 .9 1 1.4 2.2z"/>
</svg>
