<svg xmlns="http://www.w3.org/2000/svg" width="100" height="100" viewBox="0 0 75 75" preserveAspectRatio="xMidYMid meet">
    <path d="M29.8 12.3c-2.6.8-6.3 2.4-8.2 3.8-3.9 2.6-9.2 9.3-9.8 12.3-.6 3.7 1.8 2.5 3.9-1.8C21 15.8 35.1 11.1 46.5 16.4 51.2 18.5 58 24.9 58 27c0 .6-1.8 1-4 1-2.9 0-4 .4-4 1.5 0 1.2 1.4 1.5 6.5 1.5H63v-6.5c0-5.1-.3-6.5-1.5-6.5-1 0-1.5 1-1.5 3v3l-3.5-3.9C50 12.9 39.1 9.8 29.8 12.3zM11 50.5c0 3.7.4 6.5 1 6.5s1-1.4 1-3.1v-3.1l4.1 4.2c11.1 11.4 29 11.3 39.4-.2 4.7-5.1 6.2-8.5 4.7-10-.8-.8-1.4-.5-2.1 1.5-1.7 4.5-7.9 10.4-13.3 12.7-9.9 4.3-22.7.7-28.6-8l-2.4-3.5 4.1-.3c2.8-.2 4.1-.8 4.1-1.8 0-1.1-1.4-1.4-6-1.4h-6v6.5z"/>
</svg>
