<svg xmlns="http://www.w3.org/2000/svg" width="100" height="100" viewBox="0 0 75 75" preserveAspectRatio="xMidYMid meet">
    <path d="M29.8 12.4C18.6 15.5 11 25.5 11 37.3c0 7.2 1.8 12.2 6.2 17.2 13.5 15.3 38.6 10.1 44.4-9.2 1.8-5.8 1.8-9.8 0-15.6-3.9-13-18.6-21-31.8-17.3zm11 3.9C42.9 18.5 46 24.9 46 27c0 .6-3.5 1-9 1-10.2 0-10.4-.2-7.1-7.6 3-6.5 7.1-8.1 10.9-4.1zM27 20.1c-1.1 2.4-2 5.2-2 6.1 0 1.5-.9 1.8-4.5 1.8-2.5 0-4.5-.4-4.5-1 0-2.4 11.5-12.9 12.7-11.6.2.2-.6 2.3-1.7 4.7zm25.8.3c1.3 1.1 3 3.3 3.8 4.8l1.5 2.8h-4.6c-3.5 0-4.7-.4-5.1-1.8-.3-.9-1.3-3.8-2.4-6.4L44.2 15l3.1 1.6c1.8.9 4.3 2.6 5.5 3.8zM24 37.5V44h-4.9c-4.7 0-5-.1-5.6-3.1-.4-1.7-.4-4.6-.1-6.5.7-3.3.8-3.4 5.6-3.4h5v6.5zm23 0V44h-9.9-9.8l-.7-3.2c-.3-1.7-.3-4.7 0-6.5l.6-3.3h9.9H47v6.5zm13 0V44h-5.2-5.3v-6.5V31h5.3H60v6.5zM26.1 51.8c.9 2.6 1.9 5.5 2.4 6.6.7 1.7.6 1.7-2.2.3C23.1 57 16 49.6 16 48c0-.6 1.9-1 4.3-1 4.1 0 4.2.1 5.8 4.8zM46 48.2c-.1 2.4-3.7 9.3-5.9 11.2-3.2 2.9-7 1.2-9.8-4.4-3.9-7.7-3.6-8 6.7-8 6.5 0 9 .3 9 1.2zm10.6 1.5c-1.7 3.4-5.1 6.6-9.3 8.7L44.2 60l1.8-4.8c1.1-2.6 2.1-5.5 2.4-6.5.4-1.3 1.6-1.7 5.1-1.7h4.6l-1.5 2.7z"/>
</svg>
