<svg xmlns="http://www.w3.org/2000/svg" width="100" height="100" viewBox="0 0 75 75" preserveAspectRatio="xMidYMid meet">
    <path d="M11 17v5h4.5H20v-5-5h-4.5H11v5zm6 0c0 1.3-.7 2-2 2s-2-.7-2-2 .7-2 2-2 2 .7 2 2zm10 0c0 .6 6.7 1 18 1s18-.4 18-1-6.7-1-18-1-18 .4-18 1zM11 30.5V35h4.5H20v-4.5V26h-4.5H11v4.5zm6-.5c0 1.3-.7 2-2 2s-2-.7-2-2 .7-2 2-2 2 .7 2 2zm10 .5c0 1.3 2.3 1.5 14.5 1.5S56 31.8 56 30.5 53.7 29 41.5 29 27 29.2 27 30.5zm-16 13V48h4.5H20v-4.5V39h-4.5H11v4.5zm6-.5c0 1.3-.7 2-2 2-1.9 0-2.7-2-1.3-3.3C15 40.3 17 41.1 17 43zm10 .5c0 1.2 1.9 1.5 11.5 1.5S50 44.7 50 43.5 48.1 42 38.5 42 27 42.3 27 43.5zm-16 13V61h4.5H20v-4.5V52h-4.5H11v4.5zm6 .6c0 2.5-3.3 2.2-3.8-.4-.2-1.2.3-1.7 1.7-1.7 1.5 0 2.1.6 2.1 2.1zm10-.6c0 1.3 2.3 1.5 14.5 1.5S56 57.8 56 56.5 53.7 55 41.5 55 27 55.2 27 56.5z"/>
</svg>
