<svg xmlns="http://www.w3.org/2000/svg" width="100" height="100" viewBox="0 0 75 75" preserveAspectRatio="xMidYMid meet">
    <path d="M34 24.5c0 8.7-.2 9.6-2 10.3-2 .8-2 .8.5 3.2l2.5 2.3 2.5-2.3c2.5-2.4 2.5-2.4.5-3.2-1.8-.7-2-1.6-2-10.3 0-5.7-.4-9.5-1-9.5s-1 3.8-1 9.5zM23.3 20c-4.1 1.8-6.2 4.8-2.5 3.7 7.3-2.4 9.2-3.3 9.2-4.4 0-1.8-1.8-1.6-6.7.7zm-9.7 8.2c-2.1 3.2-3.2 8.8-1.7 8.8.6 0 1.6-1.2 2.1-2.8l2.1-4.6c1.7-3-.6-4.3-2.5-1.4zm43.1 4.7c-.4 1.8-1.3 2.1-5.5 2.1-2.8 0-5.4.4-5.7 1-.4.6 1.7 1 5.4 1 5.6 0 6.1.2 6.1 2.2 0 2.2.1 2.2 2.7-.5l2.8-2.7-2.6-2.6c-2.6-2.5-2.6-2.5-3.2-.5zM11 42.7c0 2.9 4.2 10.5 5.2 9.5.6-.6.3-2.2-.6-4.3-.8-1.9-1.7-4.2-2-5.2-.7-2.2-2.6-2.2-2.6 0zm39 0c0 1-.9 3.2-1.9 5-1.8 2.9-1.8 4.3 0 4.3 1 0 3.4-4.6 4.3-8.3.5-2 .3-2.7-.9-2.7-.8 0-1.5.8-1.5 1.7zM18.6 54.8c-.7 1.1 7 5.2 9.8 5.2s1.3-2.1-2.4-3.5l-5.1-1.9c-1-.4-2-.3-2.3.2zm19.7 1.3c-4.3 2-5.6 3.9-2.8 3.9 2.5 0 9.6-4 9-5-.8-1.3-1.2-1.2-6.2 1.1z"/>
</svg>
