<svg xmlns="http://www.w3.org/2000/svg" width="100" height="100" viewBox="0 0 75 75" preserveAspectRatio="xMidYMid meet">
    <path d="M26.5 14.1C6.7 24 7.4 53 27.7 61.5c5 2.1 15.8 1.9 20.8-.4 5-2.2 9.9-7.1 12.7-12.5 3-5.7 3-16.5 0-22.2-2.8-5.4-7.7-10.3-12.7-12.5-5.6-2.6-16.7-2.5-22 .2zm20.3 1.5l3.7 1.7-4.2.8c-2.3.4-5.2 1.3-6.3 1.9-1.6.9-3.1.8-6.3-.4-2.3-.8-5.1-1.7-6.2-1.9-1.7-.3-1.4-.7 1.5-2 4.6-2.1 13.1-2.1 17.8-.1zM26 22.2c5.5 3.8 5.7 4.8 1.7 10.4-4.1 5.7-8.6 15-8.8 17.9-.2 4.5-4.9-8-4.9-13 0-5.1 2.7-12.4 5.7-15.7 2-2.3 2.3-2.3 6.3.4zm29.7 0C61.8 28.9 63.2 40 59 48l-2.4 4.5-.7-3.5c-1-5.2-2.2-7.9-7.3-15.3-2.5-3.7-4.6-6.9-4.6-7.2 0-.6 8.1-6.5 9-6.5.3 0 1.6 1 2.7 2.2zM43.6 37.7c9.8 9.9 12.3 15.3 8.6 18.6-5.6 5.1-16.6 6.1-24.8 2.3-6.1-2.8-7-4.6-4.7-9.4 2-4.2 13-16.2 14.8-16.2.8 0 3.5 2.1 6.1 4.7z"/>
</svg>
