<?xml version="1.0" encoding="UTF-8"?>
<!DOCTYPE svg  PUBLIC '-//W3C//DTD SVG 20010904//EN'  'http://www.w3.org/TR/2001/REC-SVG-20010904/DTD/svg10.dtd'>
<svg width="50pt" height="50pt" version="1.0" viewBox="0 0 50 50"
  xmlns="http://www.w3.org/2000/svg">
  <g transform="translate(0 50) scale(.1 -.1)">
    <path d="m151 413c-84-42-118-171-66-258 29-50 57-70 118-85 141-36 268 112 212 248-19 43-50 79-87 98s-135 17-177-3zm130-23c9-14 20-35 24-47 6-22 4-23-59-23-73 0-79 7-51 60 24 47 57 51 86 10zm-110-25c-14-41-19-45-49-45-29 0-32 2-22 19 10 19 69 71 81 71 4 0-1-20-10-45zm202-7c25-29 21-40-14-36-26 3-33 9-45 43-7 22-14 42-14 44 0 7 56-32 73-51zm-223-108v-50h-35c-29 0-36 4-41 25-3 14-3 36 0 50 5 21 12 25 41 25h35v-50zm165 0v-45l-72-3-73-3v51 51l73-3 72-3v-45zm95 0v-50h-40-40v50 50h40 40v-50zm-239-115c9-25 14-45 11-45-11 0-72 52-82 70s-7 20 22 20c30 0 35-4 49-45zm139 40c0-16-29-72-43-83-22-19-54-6-72 28-28 53-22 60 50 60 36 0 65-2 65-5zm80-4c0-13-32-47-62-66-31-19-32-17-19 17 5 13 12 31 15 41 6 18 66 26 66 8z"/>
  </g>
</svg>
