<?xml version="1.0" standalone="no"?>
<!DOCTYPE svg PUBLIC "-//W3C//DTD SVG 20010904//EN"
 "http://www.w3.org/TR/2001/REC-SVG-20010904/DTD/svg10.dtd">
<svg version="1.0" xmlns="http://www.w3.org/2000/svg"
 width="50.000000pt" height="50.000000pt" viewBox="0 0 50.000000 50.000000"
 preserveAspectRatio="xMidYMid meet">
<metadata>
Created by potrace 1.16, written by Peter Selinger 2001-2019
</metadata>
<g transform="translate(0.000000,50.000000) scale(0.100000,-0.100000)"
fill="#000000" stroke="none">
<path d="M151 413 c-84 -42 -118 -171 -66 -258 29 -50 57 -70 118 -85 141 -36
268 112 212 248 -19 43 -50 79 -87 98 -37 19 -135 17 -177 -3z m130 -23 c9
-14 20 -35 24 -47 6 -22 4 -23 -59 -23 -73 0 -79 7 -51 60 24 47 57 51 86 10z
m-110 -25 c-14 -41 -19 -45 -49 -45 -29 0 -32 2 -22 19 10 19 69 71 81 71 4 0
-1 -20 -10 -45z m202 -7 c25 -29 21 -40 -14 -36 -26 3 -33 9 -45 43 -7 22 -14
42 -14 44 0 7 56 -32 73 -51z m-223 -108 l0 -50 -35 0 c-29 0 -36 4 -41 25 -3
14 -3 36 0 50 5 21 12 25 41 25 l35 0 0 -50z m165 0 l0 -45 -72 -3 -73 -3 0
51 0 51 73 -3 72 -3 0 -45z m95 0 l0 -50 -40 0 -40 0 0 50 0 50 40 0 40 0 0
-50z m-239 -115 c9 -25 14 -45 11 -45 -11 0 -72 52 -82 70 -10 18 -7 20 22 20
30 0 35 -4 49 -45z m139 40 c0 -16 -29 -72 -43 -83 -22 -19 -54 -6 -72 28 -28
53 -22 60 50 60 36 0 65 -2 65 -5z m80 -4 c0 -13 -32 -47 -62 -66 -31 -19 -32
-17 -19 17 5 13 12 31 15 41 6 18 66 26 66 8z"/>
</g>
</svg>
