<?xml version="1.0" standalone="no"?>
<!DOCTYPE svg PUBLIC "-//W3C//DTD SVG 20010904//EN"
 "http://www.w3.org/TR/2001/REC-SVG-20010904/DTD/svg10.dtd">
<svg version="1.0" xmlns="http://www.w3.org/2000/svg"
 width="50.000000pt" height="50.000000pt" viewBox="0 0 50.000000 50.000000"
 preserveAspectRatio="xMidYMid meet">
<metadata>
Created by potrace 1.16, written by Peter Selinger 2001-2019
</metadata>
<g transform="translate(0.000000,50.000000) scale(0.100000,-0.100000)"
fill="#000000" stroke="none">
<path d="M134 426 c-17 -8 -39 -24 -48 -37 -23 -33 -21 -101 4 -130 23 -29 26
-19 4 22 -9 19 -13 41 -9 59 8 36 58 80 91 80 55 0 104 -47 104 -100 0 -11 5
-20 11 -20 15 0 4 56 -17 88 -15 23 -70 52 -96 52 -7 -1 -27 -7 -44 -14z"/>
<path d="M160 345 c0 -45 0 -45 35 -45 19 0 35 5 35 10 0 6 -11 10 -25 10 -22
0 -25 4 -25 35 0 19 -4 35 -10 35 -5 0 -10 -20 -10 -45z"/>
<path d="M320 280 c0 -5 -18 -10 -40 -10 -36 0 -40 -2 -40 -25 0 -14 5 -25 10
-25 6 0 10 9 10 20 0 18 7 20 75 20 68 0 75 -2 75 -20 0 -11 5 -20 10 -20 6 0
10 11 10 25 0 23 -4 25 -45 25 -25 0 -45 5 -45 10 0 6 -4 10 -10 10 -5 0 -10
-4 -10 -10z"/>
<path d="M270 220 c0 -5 21 -10 47 -10 l47 0 -22 -20 c-14 -13 -35 -20 -62
-20 -22 0 -40 -4 -40 -10 0 -5 20 -10 45 -10 38 0 45 -3 45 -20 0 -10 -8 -24
-17 -29 -16 -9 -16 -10 5 -11 18 0 22 5 22 30 0 29 1 30 50 30 28 0 50 5 50
10 0 6 -21 10 -47 10 l-48 1 27 23 c15 13 24 27 21 30 -11 10 -123 7 -123 -4z"/>
<path d="M120 153 c-13 -37 -25 -74 -28 -80 -2 -7 1 -13 7 -13 6 0 13 11 17
25 5 21 12 25 40 25 28 0 36 -5 45 -27 22 -56 19 -6 -4 62 -32 94 -49 96 -77
8z m55 5 c6 -25 4 -28 -18 -28 -24 0 -25 1 -14 35 11 38 22 36 32 -7z"/>
</g>
</svg>
