<?xml version="1.0" encoding="UTF-8"?>
<!DOCTYPE svg  PUBLIC '-//W3C//DTD SVG 20010904//EN'  'http://www.w3.org/TR/2001/REC-SVG-20010904/DTD/svg10.dtd'>
<svg width="50pt" height="50pt" version="1.0" viewBox="0 0 50 50"
  xmlns="http://www.w3.org/2000/svg">
  <g transform="translate(0 50) scale(.1 -.1)">
    <path d="m67 433c-4-3-7-51-7-105v-98h80c47 0 80 4 80 10s-32 10-75 10h-76l3 83 3 82 158 3 157 3v-26c0-14 5-25 10-25 13 0 13 26 0 51-10 18-23 19-169 19-87 0-161-3-164-7z"/>
    <path d="m100 380c0-5 5-10 10-10 6 0 10 5 10 10 0 6-4 10-10 10-5 0-10-4-10-10z"/>
    <path d="m150 380c0-5 5-10 10-10 6 0 10 5 10 10 0 6-4 10-10 10-5 0-10-4-10-10z"/>
    <path d="m200 380c0-5 5-10 10-10 6 0 10 5 10 10 0 6-4 10-10 10-5 0-10-4-10-10z"/>
    <path d="m290 380c0-5 5-10 10-10 6 0 10 5 10 10 0 6-4 10-10 10-5 0-10-4-10-10z"/>
    <path d="m340 380c0-5 5-10 10-10 6 0 10 5 10 10 0 6-4 10-10 10-5 0-10-4-10-10z"/>
    <path d="m100 330c0-5 9-10 20-10s20 5 20 10c0 6-9 10-20 10s-20-4-20-10z"/>
    <path d="m170 330c0-5 5-10 10-10 6 0 10 5 10 10 0 6-4 10-10 10-5 0-10-4-10-10z"/>
    <path d="m250 200v-140h90 90v140 140h-90-90v-140zm160 0v-121l-72 3-73 3-3 118-3 117h76 75v-120z"/>
    <path d="m313 300c-43-18-41-84 4-101 59-22 102 59 51 95-25 18-25 18-55 6zm51-26c9-8 16-19 16-24 0-13-30-40-44-40-17 0-36 21-36 40s19 40 36 40c7 0 20-7 28-16z"/>
    <path d="m330 250c0-5 5-10 10-10 6 0 10 5 10 10 0 6-4 10-10 10-5 0-10-4-10-10z"/>
    <path d="m314 146c-10-26 4-48 28-44 33 4 33 52 0 56-13 2-25-3-28-12zm36-17c0-5-7-9-15-9-15 0-20 12-9 23 8 8 24-1 24-14z"/>
    <path d="m108 283c6-2 18-2 25 0 6 3 1 5-13 5s-19-2-12-5z"/>
    <path d="m183 283c9-2 23-2 30 0 6 3-1 5-18 5-16 0-22-2-12-5z"/>
  </g>
</svg>
