<?xml version="1.0" standalone="no"?>
<!DOCTYPE svg PUBLIC "-//W3C//DTD SVG 20010904//EN"
 "http://www.w3.org/TR/2001/REC-SVG-20010904/DTD/svg10.dtd">
<svg version="1.0" xmlns="http://www.w3.org/2000/svg"
 width="50.000000pt" height="50.000000pt" viewBox="0 0 50.000000 50.000000"
 preserveAspectRatio="xMidYMid meet">
<metadata>
Created by potrace 1.16, written by Peter Selinger 2001-2019
</metadata>
<g transform="translate(0.000000,50.000000) scale(0.100000,-0.100000)"
fill="#000000" stroke="none">
<path d="M254 426 c-66 -29 -94 -111 -62 -181 11 -24 8 -30 -60 -98 -40 -40
-72 -77 -72 -82 0 -5 35 25 78 68 l78 78 39 -17 c64 -26 136 1 161 63 18 42
18 67 -2 108 -28 60 -101 87 -160 61z m129 -46 c40 -45 38 -101 -7 -146 -38
-38 -77 -44 -126 -19 -107 55 -55 214 65 201 29 -3 48 -14 68 -36z"/>
</g>
</svg>
