<svg width="50pt" height="50pt" version="1.0" viewBox="0 0 50 50"
  xmlns="http://www.w3.org/2000/svg">
  <g transform="translate(0 96) scale(.1 -.1)">
    <path d="m385 822c-8-58-10-62-57-89-37-22-38-22-90-4l-53 18-84-142 39-38c36-34 40-43 40-87s-4-53-40-87l-39-38 84-142 53 18c52 18 53 18 90-4 47-27 49-31 57-89l7-48h88 88l7 48c8 58 10 62 57 89 37 22 38 22 90 4l53-18 84 142-39 38c-36 34-40 43-40 87s4 53 40 87l39 38-84 142-53-18c-52-18-53-18-90 4-47 27-49 31-57 89l-7 48h-88-88l-7-48zm139-57c7-41 12-47 49-66 23-12 50-28 59-36 17-15 35-14 95 3 16 4 26-1 39-21 17-26 16-26-16-60-31-32-33-38-33-105s2-73 33-105c32-34 33-34 16-60-13-20-23-25-39-21-60 17-78 18-95 3-9-8-36-24-59-36-37-19-42-25-49-66-6-44-7-45-44-45s-38 1-44 45c-7 41-12 47-49 66-23 12-50 28-59 36-17 15-35 14-95-3-16-4-26 1-39 21-17 26-16 26 16 60 31 32 33 38 33 105s-2 73-33 105c-32 34-33 34-16 60 13 20 23 25 39 21 60-17 78-18 95-3 9 8 36 24 59 36 37 19 42 25 49 66 6 44 7 45 44 45s38-1 44-45z"/>
    <path d="m406 606c-71-43-94-122-57-194 22-43 84-82 130-82 75 0 151 75 151 150 0 47-39 109-82 131-50 25-95 24-142-5zm135-65c20-20 29-39 29-61 0-43-47-90-90-90s-90 47-90 90c0 22 9 41 29 61s39 29 61 29 41-9 61-29z"/>
  </g>
</svg>
