<?xml version="1.0" standalone="no"?>
<!DOCTYPE svg PUBLIC "-//W3C//DTD SVG 20010904//EN"
 "http://www.w3.org/TR/2001/REC-SVG-20010904/DTD/svg10.dtd">
<svg version="1.0" xmlns="http://www.w3.org/2000/svg"
 width="50.000000pt" height="50.000000pt" viewBox="0 0 50.000000 50.000000"
 preserveAspectRatio="xMidYMid meet">
<metadata>
Created by potrace 1.16, written by Peter Selinger 2001-2019
</metadata>
<g transform="translate(0.000000,50.000000) scale(0.100000,-0.100000)"
fill="#000000" stroke="none">
<path d="M190 428 c-46 -13 -96 -52 -115 -88 -17 -33 -18 -40 -7 -40 4 0 15
15 25 33 54 100 208 113 283 24 l27 -32 -31 -3 c-49 -5 -38 -22 13 -22 l45 0
0 45 c0 25 -4 45 -10 45 -5 0 -10 -10 -10 -21 0 -19 -4 -18 -39 14 -37 33 -95
58 -131 56 -8 0 -31 -5 -50 -11z"/>
<path d="M61 153 c1 -27 4 -38 6 -25 2 12 6 22 7 22 2 0 19 -15 39 -34 46 -43
117 -62 176 -46 47 12 105 59 127 101 21 41 0 36 -25 -6 -36 -61 -113 -94
-187 -81 -33 7 -114 68 -114 87 0 5 11 9 25 9 14 0 25 5 25 10 0 6 -18 10 -40
10 l-40 0 1 -47z"/>
</g>
</svg>
